<?xml version="1.0" encoding="UTF-8" standalone="no"?>
<!-- Created with Inkscape (http://www.inkscape.org/) -->

<svg
   width="100mm"
   height="30mm"
   viewBox="0 0 100 29.999997"
   version="1.1"
   id="svg1"
   xml:space="preserve"
   inkscape:version="1.4 (e7c3feb1, 2024-10-09)"
   sodipodi:docname="logo.svg"
   xmlns:inkscape="http://www.inkscape.org/namespaces/inkscape"
   xmlns:sodipodi="http://sodipodi.sourceforge.net/DTD/sodipodi-0.dtd"
   xmlns="http://www.w3.org/2000/svg"
   xmlns:svg="http://www.w3.org/2000/svg"><sodipodi:namedview
     id="namedview1"
     pagecolor="#ffffff"
     bordercolor="#000000"
     borderopacity="0.25"
     inkscape:showpageshadow="2"
     inkscape:pageopacity="0.0"
     inkscape:pagecheckerboard="0"
     inkscape:deskcolor="#d1d1d1"
     inkscape:document-units="mm"
     inkscape:zoom="1.9483396"
     inkscape:cx="171.68465"
     inkscape:cy="34.131627"
     inkscape:window-width="1392"
     inkscape:window-height="824"
     inkscape:window-x="1930"
     inkscape:window-y="397"
     inkscape:window-maximized="0"
     inkscape:current-layer="layer1" /><defs
     id="defs1">
	
	
	
	
	

	
	
	
	
	
	
	
	
	
	
	
	
	
	
</defs><g
     inkscape:label="Ebene 1"
     inkscape:groupmode="layer"
     id="layer1"><g
       id="g66"
       transform="matrix(0.1967987,0,0,0.1967987,0.18966399,-16.354232)"><path
         fill="#e89419"
         d="M 3,22 H 45 V 42 H 3 Z"
         id="path1-4" /><path
         fill="#c62828"
         d="M 31,3 V 7 H 28.8 C 26.4,7 27.6,6 24,6 V 2 c 3.6,0 2.4,1 4.8,1 z"
         id="path2-6" /><path
         fill="#805a26"
         d="m 6,26 h 3 v 5 H 6 Z m 5,0 h 3 v 5 h -3 z m 0,8 h 3 v 5 h -3 z m -5,0 h 3 v 5 H 6 Z m 28,-8 h 3 v 5 h -3 z m 5,0 h 3 v 5 h -3 z m 0,8 h 3 v 5 h -3 z m -5,0 h 3 v 5 h -3 z"
         id="path3-4" /><path
         fill="#00796b"
         d="m 3,17 h 42 v 6 H 3 Z"
         id="path4-3" /><path
         fill="#ffb74d"
         d="m 24,9.5 -7,7 V 42 H 31 V 16.5 Z"
         id="path5-8" /><path
         fill="#fafafa"
         d="m 24,19 a 5,5 0 1 0 0,10 5,5 0 1 0 0,-10 z"
         id="path6-4" /><path
         fill="#795548"
         d="m 26,25 h -2 c -0.6,0 -1,-0.4 -1,-1 v -2 c 0,-0.6 0.4,-1 1,-1 0.6,0 1,0.4 1,1 v 1 h 1 c 0.6,0 1,0.4 1,1 0,0.6 -0.4,1 -1,1 z"
         id="path7-0" /><path
         fill="#4db6ac"
         d="m 24,8 -9,9 v 2.9 l 9,-9 9,9 V 17 Z"
         id="path8-0" /><path
         fill="#805a26"
         d="m 24,32 c -1.7,0 -3,1.3 -3,3 0,1.7 0,7 0,7 h 6 c 0,0 0,-5.3 0,-7 0,-1.7 -1.3,-3 -3,-3 z"
         id="path9-9" /></g><g
       id="g59"
       transform="matrix(0.04596079,0,0,0.04596079,10.487427,-19.438973)"><path
         fill="#8cc78c"
         d="M 67.962,25.626 C 59.365,21.875 50.995,8 50,8 49.005,8 41.902,21.153 32.032,25.629 c -0.691,0.314 -1.074,0.952 -1.028,1.6 0.044,0.644 3.311,3.579 9.046,2.84 1.817,3.732 7.742,4.296 9.951,2.287 3.588,2.357 9.904,0.621 9.904,-2.504 5.104,1.562 9.049,-1.982 9.093,-2.627 0.044,-0.648 -0.34,-1.296 -1.036,-1.599 z"
         id="path49" /><path
         fill="#8cc78c"
         d="m 40.79,31.5 c -5.283,5.908 -12.353,11.019 -17.27,13.316 -1.001,0.469 -1.579,1.328 -1.515,2.23 0.045,0.597 3.438,6.654 12.672,5.466 4.275,4.207 11.46,4.395 15.323,1.703 5.335,2.694 11.082,2.033 14.629,-1.545 10.346,1.123 13.323,-5.015 13.367,-5.627 C 78.06,46.14 77.475,45.284 76.469,44.811 71.612,42.562 64.48,37.604 59.206,31.762"
         id="path50" /><path
         fill="#8cc78c"
         d="m 33.99,53 c -6.276,6.005 -12.855,10.877 -18.036,13.301 -1.286,0.61 -2.029,1.715 -1.948,2.88 0.056,0.737 3.641,7.83 14.691,6.164 5.994,4.259 14.12,5.148 21.298,3.084 8.388,2.238 14.374,0.811 19.049,-2.82 9.673,0.779 16.647,-4.014 16.941,-6.426 0.141,-1.164 -0.67,-2.276 -1.964,-2.886 C 78.743,63.841 72.217,59.548 65.869,53.395"
         id="path51" /><path
         fill="none"
         stroke="#1f212b"
         stroke-linecap="round"
         stroke-linejoin="round"
         stroke-miterlimit="10"
         stroke-width="2"
         d="M 67.962,25.626 C 59.365,21.875 50.995,8 50,8 49.005,8 41.902,21.153 32.032,25.629 c -0.691,0.314 -1.074,0.952 -1.028,1.6 0.044,0.644 3.311,3.579 9.046,2.84 1.817,3.732 7.742,4.296 9.951,2.287 3.588,2.357 9.904,0.621 9.904,-2.504 5.104,1.562 9.049,-1.982 9.093,-2.627 0.044,-0.648 -0.34,-1.296 -1.036,-1.599 z"
         id="path52" /><path
         fill="none"
         stroke="#1f212b"
         stroke-linecap="round"
         stroke-linejoin="round"
         stroke-miterlimit="10"
         d="m 40.932,24.5 c -0.598,0.517 -1.214,1.019 -1.848,1.5"
         id="path53" /><path
         fill="none"
         stroke="#1f212b"
         stroke-linecap="round"
         stroke-linejoin="round"
         stroke-miterlimit="10"
         d="m 47.982,17 c -1.273,1.6 -2.742,3.325 -4.391,5"
         id="path54" /><polyline
         fill="#b77748"
         points="57,78.5 57,91.5 43,91.5 43,78.5"
         id="polyline54" /><path
         fill="none"
         stroke="#1f212b"
         stroke-linecap="round"
         stroke-linejoin="round"
         stroke-miterlimit="10"
         stroke-width="2"
         d="m 40.79,31.5 c -5.283,5.908 -12.353,11.019 -17.27,13.316 -1.001,0.469 -1.579,1.328 -1.515,2.23 0.045,0.597 3.438,6.654 12.672,5.466 4.275,4.207 11.46,4.395 15.323,1.703 5.335,2.694 11.082,2.033 14.629,-1.545 10.346,1.123 13.323,-5.015 13.367,-5.627 C 78.06,46.14 77.475,45.284 76.469,44.811 71.612,42.562 64.48,37.604 59.206,31.762"
         id="path55"
         style="stroke-width:2.0051;stroke-dasharray:none" /><path
         fill="none"
         stroke="#1f212b"
         stroke-linecap="round"
         stroke-linejoin="round"
         stroke-miterlimit="10"
         stroke-width="2"
         d="m 33.99,53 c -6.276,6.005 -12.855,10.877 -18.036,13.301 -1.286,0.61 -2.029,1.715 -1.948,2.88 0.056,0.737 3.641,7.83 14.691,6.164 5.994,4.259 14.12,5.148 21.298,3.084 8.388,2.238 14.374,0.811 19.049,-2.82 9.673,0.779 16.647,-4.014 16.941,-6.426 0.141,-1.164 -0.67,-2.276 -1.964,-2.886 C 78.743,63.841 72.217,59.548 65.869,53.395"
         id="path56" /><path
         fill="none"
         stroke="#1f212b"
         stroke-linecap="round"
         stroke-linejoin="round"
         stroke-miterlimit="10"
         d="M 66,58.96 C 65.665,58.665 65.331,58.366 65,58.065"
         id="path57" /><path
         fill="none"
         stroke="#1f212b"
         stroke-linecap="round"
         stroke-linejoin="round"
         stroke-miterlimit="10"
         d="M 71.643,63.5 C 70.587,62.727 69.537,61.917 68.5,61.074"
         id="path58" /><path
         fill="none"
         stroke="#1f212b"
         stroke-linecap="round"
         stroke-linejoin="round"
         stroke-miterlimit="10"
         d="m 71.14,71.694 c 4.573,0 7.879,-1.391 9.655,-2.517 -2.072,-1.048 -4.18,-2.284 -6.283,-3.676"
         id="path59" /><polyline
         fill="none"
         stroke="#1f212b"
         stroke-linecap="round"
         stroke-linejoin="round"
         stroke-miterlimit="10"
         stroke-width="2"
         points="57,80 57,91.5 43,91.5 43,80"
         id="polyline59" /></g><text
       xml:space="preserve"
       style="font-weight:bold;font-size:11.4437px;font-family:Helvetica;-inkscape-font-specification:'Helvetica Bold';text-align:center;writing-mode:lr-tb;direction:ltr;text-anchor:middle;opacity:0.99568;fill:#82c582;fill-opacity:1;stroke:none;stroke-width:0.405487;stroke-linecap:round;stroke-linejoin:round;stroke-dasharray:none;stroke-opacity:1"
       x="35.872593"
       y="18.598379"
       id="text1"><tspan
         sodipodi:role="line"
         id="tspan1"
         style="font-size:11.4437px;fill:#82c582;fill-opacity:1;stroke:none;stroke-width:0.405487;stroke-dasharray:none;stroke-opacity:1"
         x="35.872593"
         y="18.598379">Lars Dietrich</tspan></text><text
       xml:space="preserve"
       style="font-weight:bold;font-size:5.72186px;font-family:Helvetica;-inkscape-font-specification:'Helvetica Bold';text-align:center;writing-mode:lr-tb;direction:ltr;text-anchor:middle;opacity:0.99568;fill:#010100;fill-opacity:0.988764;stroke-width:0.35994;stroke-linecap:round;stroke-linejoin:round"
       x="49.388344"
       y="25.832163"
       id="text2"><tspan
         sodipodi:role="line"
         id="tspan2"
         style="font-style:normal;font-variant:normal;font-weight:300;font-stretch:normal;font-size:5.72186px;font-family:Helvetica;-inkscape-font-specification:'Helvetica Light';stroke:none;stroke-width:0.35994;stroke-opacity:1"
         x="49.388344"
         y="25.832163">Science Education and Plant Ecology</tspan></text><path
       style="fill:#a2b3cb;stroke-width:0.0934865"
       d="m 31.166106,-21.015266 -0.377124,9.4e-5 c -0.138825,0 -0.251476,-0.112561 -0.251476,-0.251384 v -0.251383 l 0.879982,-9.4e-5 v 0.251383 c 9.4e-5,0.138827 -0.11246,0.251384 -0.251382,0.251384 z"
       id="path11" /><path
       style="fill:#7c8a9f;stroke-width:0.0934865"
       d="m 31.229022,-21.015266 c 0,0.138826 -0.112461,0.251477 -0.251385,0.251477 -0.138827,0 -0.251478,-0.11256 -0.251478,-0.251383"
       id="path12" /><path
       style="fill:#fcc938;stroke-width:0.0934865"
       d="m 32.10863,-22.963888 c -9.3e-5,-0.667397 -0.578023,-1.199706 -1.260659,-1.123982 -0.532681,0.05909 -0.957015,0.499495 -0.998616,1.033862 -0.03,0.386471 0.134713,0.735268 0.406009,0.960195 0.09722,0.08068 0.156403,0.198097 0.156403,0.324396 v 0 c 0,0.138827 0.112561,0.251384 0.251477,0.251384 l 0.628506,-9.4e-5 c 0.138827,0 0.251384,-0.112561 0.251384,-0.251477 v -0.0025 c 0,-0.125552 0.05955,-0.241662 0.156122,-0.321779 0.249981,-0.207351 0.409468,-0.519782 0.409374,-0.869981 z"
       id="path13" /><path
       style="fill:#472b29;stroke-width:0.0934862"
       d="m 31.165918,-20.949638 h -0.377121 c -0.174726,0 -0.316917,-0.142193 -0.316917,-0.316917 v -0.316919 h 1.010863 v 0.316919 c 9.4e-5,0.174817 -0.142003,0.316917 -0.316825,0.316917 z m -0.563064,-0.502864 v 0.185947 c 0,0.102552 0.08348,0.18594 0.185943,0.18594 h 0.377121 c 0.102556,0 0.185945,-0.08348 0.185945,-0.18594 v -0.185947 z"
       id="path16" /><path
       style="fill:#472b29;stroke-width:0.0934862"
       d="m 30.977451,-20.698161 c -0.174725,0 -0.316917,-0.142192 -0.316917,-0.316919 h 0.130881 c 0,0.102555 0.08349,0.185942 0.185943,0.185942 0.102459,0 0.185851,-0.08348 0.185851,-0.185942 h 0.13088 c 9.3e-5,0.174727 -0.142006,0.316919 -0.316638,0.316919 z"
       id="path17" /><path
       style="fill:#472b29;stroke-width:0.0934862"
       d="m 31.071686,-21.274503 h -0.534272 c -0.0129,0 -0.02337,-0.01047 -0.02337,-0.02337 0,-0.0129 0.01047,-0.02337 0.02337,-0.02337 h 0.534272 c 0.0129,0 0.02337,0.01047 0.02337,0.02337 0,0.0129 -0.01056,0.02337 -0.02337,0.02337 z"
       id="path18" /><path
       style="fill:#472b29;stroke-width:0.0934862"
       d="m 31.417396,-21.274503 h -0.157149 c -0.0129,0 -0.02337,-0.01047 -0.02337,-0.02337 0,-0.0129 0.01047,-0.02337 0.02337,-0.02337 h 0.157149 c 0.0129,0 0.02337,0.01047 0.02337,0.02337 0,0.0129 -0.01047,0.02337 -0.02337,0.02337 z"
       id="path19" /><path
       style="fill:#472b29;stroke-width:0.0934862"
       d="m 31.291659,-21.452502 h -0.628601 c -0.174725,0 -0.316916,-0.142191 -0.316916,-0.316915 0,-0.104238 -0.04833,-0.204173 -0.132658,-0.274009 -0.298969,-0.248111 -0.459483,-0.62785 -0.429286,-1.015817 0.04459,-0.570827 0.488932,-1.030779 1.056857,-1.093599 0.345991,-0.0388 0.677493,0.0675 0.934392,0.297472 0.253347,0.22689 0.398718,0.551846 0.398718,0.891762 0,0.356556 -0.157802,0.691984 -0.433119,0.92037 -0.08423,0.06983 -0.132563,0.168742 -0.132563,0.271296 9.2e-5,0.177343 -0.142099,0.31944 -0.316824,0.31944 z m -0.312898,-2.577033 c -0.04086,0 -0.0819,0.0021 -0.123214,0.0067 -0.497347,0.05506 -0.901766,0.473695 -0.940751,0.973844 -0.02739,0.350759 0.111997,0.68058 0.382356,0.904854 0.114335,0.09489 0.179962,0.23147 0.179962,0.374783 0,0.102554 0.08349,0.185943 0.185944,0.185943 h 0.628601 c 0.102553,0 0.185941,-0.08348 0.185941,-0.185943 0,-0.14425 0.06554,-0.279897 0.179868,-0.374694 0.245213,-0.203329 0.385817,-0.502017 0.385817,-0.819589 0,-0.302614 -0.129478,-0.592235 -0.355152,-0.794258 -0.198004,-0.177342 -0.446303,-0.27167 -0.709372,-0.27167 z"
       id="path20" /><path
       style="fill:#472b29;stroke-width:0.0934862"
       d="m 31.134507,-21.714448 c -0.0129,0 -0.02337,-0.01046 -0.02337,-0.02337 0,-0.331874 0.08021,-0.670575 0.176222,-0.881947 -0.0015,-4.47e-4 -0.0031,-0.0013 -0.0047,-0.002 -0.04328,-0.01786 -0.08946,-0.04478 -0.129384,-0.07899 -0.0459,0.02627 -0.104329,0.04337 -0.175939,0.04337 -0.07161,0 -0.130132,-0.01711 -0.176033,-0.04337 -0.03992,0.03431 -0.0862,0.06105 -0.129573,0.07909 -0.0015,4.47e-4 -0.0029,0.0013 -0.0044,0.0019 0.09582,0.211369 0.17613,0.550071 0.17613,0.881946 0,0.0129 -0.01047,0.02337 -0.02337,0.02337 -0.0129,0 -0.02337,-0.01047 -0.02337,-0.02337 0,-0.329351 -0.07918,-0.663751 -0.172668,-0.866709 -0.09891,0.02992 -0.187065,0.02141 -0.23278,-0.0244 -0.02225,-0.02225 -0.0345,-0.05189 -0.0345,-0.08339 0,-0.03141 0.01234,-0.06086 0.0345,-0.08311 0.0444,-0.0444 0.121999,-0.0444 0.166312,0 0.02963,0.02964 0.06011,0.07535 0.08946,0.133313 0.0023,-8.94e-4 0.0046,-0.0019 0.0067,-0.0027 0.03599,-0.01486 0.07414,-0.03636 0.107697,-0.06338 -0.06114,-0.05039 -0.09059,-0.118633 -0.09059,-0.172576 0,-0.06488 0.05273,-0.117699 0.117699,-0.117699 0.06497,0 0.117699,0.05273 0.117699,0.117699 0,0.06376 -0.02851,0.119757 -0.07002,0.165844 0.03758,0.01879 0.08442,0.03076 0.140975,0.03076 0.05646,0 0.103208,-0.01197 0.140884,-0.03076 -0.04151,-0.04609 -0.07002,-0.10218 -0.07002,-0.165844 0,-0.06488 0.05272,-0.117699 0.117699,-0.117699 0.06497,0 0.117697,0.05273 0.117697,0.117699 0,0.05394 -0.02935,0.122187 -0.09059,0.172576 0.03356,0.02702 0.0718,0.04852 0.107601,0.06329 0.0023,0.0012 0.0046,0.002 0.0068,0.0028 0.02935,-0.05796 0.05983,-0.103583 0.08947,-0.133311 0.04581,-0.04581 0.12041,-0.04581 0.166405,0 0.04581,0.04581 0.04581,0.120503 0,0.166405 -0.04572,0.04572 -0.133966,0.05431 -0.232874,0.0244 -0.09349,0.202959 -0.172669,0.537263 -0.172669,0.866707 1.49e-4,0.0129 -0.0103,0.02347 -0.02318,0.02347 z m 0.216982,-0.932803 c 0.0775,0.0216 0.147335,0.01693 0.178933,-0.01468 0.02758,-0.02767 0.02767,-0.07264 0,-0.10031 -0.02777,-0.02758 -0.07273,-0.02758 -0.10031,0 -0.02608,0.02599 -0.05273,0.06525 -0.07862,0.114987 z m -0.876899,-0.135743 c -0.01814,0 -0.03636,0.0069 -0.05011,0.02076 -0.01346,0.01346 -0.02085,0.03113 -0.02085,0.05011 0,0.01889 0.0074,0.03683 0.02085,0.0502 0.03169,0.03169 0.101244,0.03655 0.178837,0.01468 -0.02589,-0.04973 -0.05263,-0.089 -0.07862,-0.114987 -0.01374,-0.01383 -0.03197,-0.02076 -0.05011,-0.02076 z m 0.691328,-0.188654 c -0.03908,0 -0.07096,0.03188 -0.07096,0.07096 0,0.05375 0.0258,0.101432 0.06338,0.140883 0.05301,-0.04095 0.07853,-0.09676 0.07853,-0.140883 0,-0.03908 -0.03188,-0.07096 -0.07096,-0.07096 z m -0.377121,0 c -0.03908,0 -0.07096,0.03188 -0.07096,0.07096 0,0.04412 0.02543,0.09994 0.07853,0.140883 0.03749,-0.03945 0.06338,-0.08713 0.06338,-0.140883 0,-0.03908 -0.03188,-0.07096 -0.07095,-0.07096 z"
       id="path21" /><g
       style="clip-rule:evenodd;fill-rule:evenodd"
       id="g30"
       transform="matrix(0.07454542,0,0,0.07454542,19.822665,-16.923867)"><path
         fill="#388e3c"
         d="M 43.154,64 C 43.511,64 61.877,41.523 61.877,41.523 62.636,40.56 63.785,40 65,40 c 1.215,0 2.364,0.56 3.123,1.523 l 2.8,3.551 L 70,64 Z"
         id="path1-5" /><ellipse
         cx="14"
         cy="48"
         fill="#388e3c"
         rx="5"
         ry="6"
         id="ellipse1" /><ellipse
         cx="21"
         cy="48"
         fill="#1b5e20"
         rx="5"
         ry="6"
         id="ellipse2" /><path
         fill="#1b5e20"
         d="M 56,64 76.877,37.523 C 77.636,36.56 78.785,36 80,36 c 1.215,0 2.364,0.56 3.123,1.523 l 16.898,21.43 C 97.449,58.33 94.763,58 92,58 84.842,58 78.198,60.217 72.718,64 Z"
         id="path2-4" /><path
         fill="#00b0ff"
         d="M 60.118,103.83 C 58.76,103.943 57.387,104 56,104 31.9,104 11.867,86.69 8,64 H 72.718 C 63.829,70.136 58,80.392 58,92 c 0,4.159 0.748,8.145 2.118,11.83 z"
         id="path3-9" /><path
         fill="#33691e"
         d="m 60.513,79.156 c -0.741,-1.379 -1.405,-2.882 -1.98,-4.519 -0.319,-0.909 -1.242,-1.461 -2.194,-1.313 -4.313,0.67 -8.225,-0.015 -10.462,-2.129 -1.685,-1.59 -2.434,-3.983 -1.723,-7.195 0,0 14.069,0 28.564,0 -5.41,3.734 -9.686,8.994 -12.205,15.156 z M 23,73 c 0.076,-0.004 -0.076,-0.005 0,0 -3.552,-0.234 -4.804,1.803 -6.417,3.466 -0.807,0.831 -1.703,1.569 -3.023,1.882 -0.184,0.044 -0.379,0.079 -0.583,0.105 C 10.582,74.004 8.876,69.14 8,64 h 24.433 c 0.011,0.031 0.407,4.25 -0.544,5.646 C 30.462,71.739 27.386,72.785 23,73 Z"
         id="path4-1" /><circle
         cx="92"
         cy="92"
         r="28"
         fill="#d4e157"
         id="circle4" /><circle
         cx="91"
         cy="19"
         r="4"
         fill="#ffc400"
         id="circle5" /><path
         fill="#9575cd"
         d="m 75.179,89.539 c 0,0 1.881,-0.322 2.257,-0.386 0.736,-0.1 1.386,-0.608 1.631,-1.361 0,0 0.001,-0.001 0.001,-0.002 0.219,-0.672 0.49,-1.327 0.811,-1.957 0.337,-0.662 0.279,-1.457 -0.151,-2.063 l -1.363,-1.924 c 0.52,-0.697 1.46,-1.627 2.232,-2.35 0.692,-0.649 1.249,-1.131 1.249,-1.131 0,0 1.558,1.103 1.869,1.324 0.591,0.449 1.41,0.549 2.116,0.191 0,0 10e-4,-10e-4 10e-4,-10e-4 0.631,-0.321 1.285,-0.592 1.958,-0.811 0.706,-0.23 1.227,-0.833 1.352,-1.565 l 0.397,-2.324 c 1.632,-0.239 3.29,-0.239 4.922,0 0,0 0.322,1.881 0.386,2.257 0.1,0.736 0.608,1.386 1.361,1.631 0,0 0.001,0.001 0.002,0.001 0.672,0.219 1.327,0.49 1.957,0.811 0.662,0.337 1.457,0.279 2.063,-0.151 l 1.924,-1.363 c 1.323,0.986 3.481,3.481 3.481,3.481 0,0 -1.103,1.558 -1.324,1.869 -0.449,0.591 -0.549,1.41 -0.191,2.116 0,0 10e-4,10e-4 10e-4,10e-4 0.321,0.631 0.592,1.285 0.811,1.958 0.23,0.706 0.833,1.227 1.565,1.352 l 2.324,0.397 v 4.922 c 0,0 -1.881,0.322 -2.257,0.386 -0.736,0.1 -1.386,0.608 -1.631,1.361 0,0 -0.001,0.001 -0.001,0.002 -0.219,0.672 -0.49,1.327 -0.811,1.957 -0.337,0.662 -0.279,1.457 0.151,2.063 l 1.363,1.924 -3.481,3.481 c 0,0 -1.558,-1.103 -1.869,-1.324 -0.591,-0.449 -1.41,-0.549 -2.116,-0.191 0,0 -10e-4,10e-4 -10e-4,10e-4 -0.631,0.321 -1.285,0.592 -1.958,0.811 -0.706,0.23 -1.227,0.833 -1.352,1.565 l -0.397,2.324 h -4.922 c 0,0 -0.322,-1.881 -0.386,-2.257 -0.1,-0.736 -0.608,-1.386 -1.361,-1.631 0,0 -0.001,-0.001 -0.002,-0.001 -0.672,-0.219 -1.327,-0.49 -1.957,-0.811 -0.662,-0.337 -1.457,-0.279 -2.063,0.151 l -1.924,1.363 -3.481,-3.481 c 0,0 1.103,-1.558 1.324,-1.869 0.449,-0.591 0.549,-1.41 0.191,-2.116 0,0 -10e-4,-10e-4 -10e-4,-10e-4 -0.321,-0.631 -0.592,-1.285 -0.811,-1.958 -0.23,-0.706 -0.833,-1.227 -1.565,-1.352 L 75.179,94.461 Z M 92,85 c -3.863,0 -7,3.137 -7,7 0,3.863 3.137,7 7,7 3.863,0 7,-3.137 7,-7 0,-3.863 -3.137,-7 -7,-7 z"
         id="path5-7" /><path
         fill="#b4e8ff"
         d="m 18.038,20.806 c 0.111,0.22 -0.024,-0.245 0,0 -0.186,-1.869 0.311,-3.57 1.459,-4.805 0.898,-0.966 2.202,-1.652 3.892,-1.898 0.791,-0.116 1.437,-0.691 1.644,-1.463 C 25.803,9.758 28.946,8 32.961,8 c 2.77,0 5.229,0.854 6.752,2.104 0.645,0.53 1.119,1.129 1.384,1.773 0.267,0.65 0.856,1.113 1.552,1.217 1.26,0.191 2.233,0.662 2.981,1.274 1.491,1.221 2.099,3.027 2.294,4.425 0.125,0.906 -0.052,1.929 -0.078,2.074 -0.379,0.699 -1.061,1.129 -1.798,1.129 H 46.047 C 40.087,22 25.834,22 19.875,22 19.113,22 18.41,21.543 18.038,20.806 Z"
         id="path6-5" /><path
         fill="#ffb300"
         d="M 30,89 V 79 l 8,5 z"
         id="path7-5" /><path
         fill="#ffb300"
         d="m 38,84 0.002,-0.003 c 0,0 6.232,-4.997 7.998,-4.997 1.766,0 7.998,4.997 7.998,4.997 0,0 -6.232,5.003 -7.998,5.003 -1.766,0 -8,-5 -8,-5 z"
         id="path8-4" /><path
         d="m 92,62 c 16.557,0 30,13.443 30,30 0,16.557 -13.443,30 -30,30 C 75.443,122 62,108.557 62,92 62,75.443 75.443,62 92,62 Z m 0,4 c -14.35,0 -26,11.65 -26,26 0,14.35 11.65,26 26,26 14.35,0 26,-11.65 26,-26 0,-14.35 -11.65,-26 -26,-26 z m 4.433,8.843 c 0,0 0.396,2.323 0.396,2.323 0.771,0.251 1.522,0.562 2.245,0.93 l 1.923,-1.363 c 0.707,-0.5 1.656,-0.489 2.351,0.028 1.479,1.102 2.789,2.412 3.891,3.891 0.517,0.695 0.528,1.644 0.028,2.351 0,0 -1.363,1.923 -1.363,1.923 0.368,0.723 0.679,1.473 0.93,2.245 l 2.323,0.396 c 0.854,0.146 1.517,0.825 1.643,1.682 0.267,1.824 0.267,3.678 0,5.502 -0.126,0.857 -0.789,1.536 -1.643,1.682 0,0 -2.323,0.396 -2.323,0.396 -0.251,0.771 -0.562,1.522 -0.93,2.245 l 1.363,1.923 c 0.5,0.707 0.489,1.656 -0.028,2.351 -1.102,1.479 -2.412,2.789 -3.891,3.891 -0.695,0.517 -1.644,0.528 -2.351,0.028 0,0 -1.923,-1.363 -1.923,-1.363 -0.723,0.368 -1.473,0.679 -2.245,0.93 l -0.396,2.323 c -0.146,0.854 -0.825,1.517 -1.682,1.643 -1.824,0.267 -3.678,0.267 -5.502,0 -0.857,-0.126 -1.536,-0.789 -1.682,-1.643 0,0 -0.396,-2.323 -0.396,-2.323 -0.771,-0.251 -1.522,-0.562 -2.245,-0.93 l -1.923,1.363 c -0.707,0.5 -1.656,0.489 -2.351,-0.028 -1.479,-1.102 -2.789,-2.412 -3.891,-3.891 -0.517,-0.695 -0.528,-1.644 -0.028,-2.351 0,0 1.363,-1.923 1.363,-1.923 -0.368,-0.723 -0.679,-1.473 -0.93,-2.245 l -2.323,-0.396 c -0.854,-0.146 -1.517,-0.825 -1.643,-1.682 -0.267,-1.824 -0.267,-3.678 0,-5.502 0.126,-0.857 0.789,-1.536 1.643,-1.682 0,0 2.323,-0.396 2.323,-0.396 0.251,-0.771 0.562,-1.522 0.93,-2.245 l -1.363,-1.923 c -0.5,-0.707 -0.489,-1.656 0.028,-2.351 1.102,-1.479 2.412,-2.789 3.891,-3.891 0.695,-0.517 1.644,-0.528 2.351,-0.028 0,0 1.923,1.363 1.923,1.363 0.723,-0.368 1.473,-0.679 2.245,-0.93 l 0.396,-2.323 c 0.146,-0.854 0.825,-1.517 1.682,-1.643 1.824,-0.267 3.678,-0.267 5.502,0 0.857,0.126 1.536,0.789 1.682,1.643 z m -3.687,2.176 c -0.497,-0.025 -0.995,-0.025 -1.492,0 l -0.353,2.069 c -0.136,0.794 -0.735,1.43 -1.52,1.612 -1.246,0.288 -2.435,0.781 -3.519,1.457 -0.684,0.427 -1.557,0.401 -2.215,-0.065 0,0 -1.713,-1.213 -1.713,-1.213 -0.369,0.334 -0.721,0.686 -1.055,1.055 l 1.213,1.713 c 0.466,0.658 0.492,1.531 0.065,2.215 -0.676,1.084 -1.169,2.273 -1.457,3.519 -0.182,0.785 -0.818,1.384 -1.612,1.52 0,0 -2.069,0.353 -2.069,0.353 -0.025,0.497 -0.025,0.995 0,1.492 l 2.069,0.353 c 0.794,0.136 1.43,0.735 1.612,1.52 0.288,1.246 0.781,2.435 1.457,3.519 0.427,0.684 0.401,1.557 -0.065,2.215 0,0 -1.213,1.713 -1.213,1.713 0.334,0.369 0.686,0.721 1.055,1.055 l 1.713,-1.213 c 0.658,-0.466 1.531,-0.492 2.215,-0.065 1.084,0.676 2.273,1.169 3.519,1.457 0.785,0.182 1.384,0.818 1.52,1.612 0,0 0.353,2.069 0.353,2.069 0.497,0.025 0.995,0.025 1.492,0 l 0.353,-2.069 c 0.136,-0.794 0.735,-1.43 1.52,-1.612 1.246,-0.288 2.435,-0.781 3.519,-1.457 0.684,-0.427 1.557,-0.401 2.215,0.065 0,0 1.713,1.213 1.713,1.213 0.369,-0.334 0.721,-0.686 1.055,-1.055 l -1.213,-1.713 c -0.466,-0.658 -0.492,-1.531 -0.065,-2.215 0.676,-1.084 1.169,-2.273 1.457,-3.519 0.182,-0.785 0.818,-1.384 1.612,-1.52 0,0 2.069,-0.353 2.069,-0.353 0.025,-0.497 0.025,-0.995 0,-1.492 l -2.069,-0.353 c -0.794,-0.136 -1.43,-0.735 -1.612,-1.52 -0.288,-1.246 -0.781,-2.435 -1.457,-3.519 -0.427,-0.684 -0.401,-1.557 0.065,-2.215 0,0 1.213,-1.713 1.213,-1.713 -0.334,-0.369 -0.686,-0.721 -1.055,-1.055 l -1.713,1.213 c -0.658,0.466 -1.531,0.492 -2.215,0.065 -1.084,-0.676 -2.273,-1.169 -3.519,-1.457 -0.785,-0.182 -1.384,-0.818 -1.52,-1.612 z M 92,83.2 c 4.857,0 8.8,3.943 8.8,8.8 0,4.857 -3.943,8.8 -8.8,8.8 -4.857,0 -8.8,-3.943 -8.8,-8.8 0,-4.857 3.943,-8.8 8.8,-8.8 z m 0,4 c -2.649,0 -4.8,2.151 -4.8,4.8 0,2.649 2.151,4.8 4.8,4.8 2.649,0 4.8,-2.151 4.8,-4.8 0,-2.649 -2.151,-4.8 -4.8,-4.8 z M 60.907,105.768 C 59.292,105.922 57.655,106 56,106 30.905,106 10.055,87.963 6.028,64.336 5.929,63.755 6.092,63.16 6.472,62.71 6.852,62.26 7.411,62 8,62 h 4 V 55.662 C 9.162,54.683 7,51.68 7,48 c 0,-4.507 3.244,-8 7,-8 1.272,0 2.474,0.384 3.514,1.074 C 18.551,40.389 19.747,40 21,40 c 3.756,0 7,3.493 7,8 0,3.68 -2.162,6.683 -5,7.662 V 62 H 43.184 L 60.306,40.285 C 61.446,38.839 63.175,38 65,38 c 1.825,0 3.554,0.839 4.694,2.285 l 1.229,1.559 4.383,-5.559 C 76.446,34.839 78.175,34 80,34 c 1.825,0 3.554,0.839 4.694,2.285 l 18.654,23.658 c -2.031,-0.72 -4.15,-1.252 -6.336,-1.575 L 81.553,38.761 C 81.175,38.282 80.605,38 80,38 c -0.605,0 -1.175,0.282 -1.553,0.761 L 60.124,62 h 15.872 c -2.108,1.128 -4.083,2.471 -5.896,4 H 45.891 c -0.047,1.108 0.164,2.053 0.625,2.83 0.773,1.3 2.197,2.073 3.925,2.462 2.059,0.462 4.53,0.364 7.103,-0.239 1.028,-0.241 2.067,0.359 2.371,1.371 0.499,1.658 1.026,3.17 1.584,4.546 -0.807,1.632 -1.486,3.338 -2.025,5.105 -1.029,-1.937 -1.98,-4.181 -2.843,-6.772 C 51.617,76.078 47.106,75.107 44.503,72.649 42.82,71.06 41.8,68.857 41.886,66 h -7.109 c 0.094,1.914 -0.363,3.491 -1.236,4.772 -1.691,2.482 -5.242,3.971 -10.443,4.226 -0.077,0.003 -0.153,0.003 -0.23,-0.002 -2.521,-0.167 -3.424,1.337 -4.545,2.541 -0.716,0.769 -1.476,1.483 -2.414,2.019 C 24.062,92.997 38.975,102 56,102 c 1.163,0 2.317,-0.042 3.459,-0.125 0.405,1.334 0.889,2.634 1.448,3.893 z M 14.856,44.171 C 14.587,44.061 14.3,44 14,44 c -1.767,0 -3,1.88 -3,4 0,2.12 1.233,4 3,4 0.3,0 0.587,-0.061 0.856,-0.171 C 14.312,50.7 14,49.399 14,48 c 0,-1.399 0.312,-2.7 0.856,-3.829 z M 21,44 c -1.767,0 -3,1.88 -3,4 0,2.12 1.233,4 3,4 1.767,0 3,-1.88 3,-4 0,-2.12 -1.233,-4 -3,-4 z m 9.775,22 c -11.826,0 -20.342,0 -20.342,0 0.793,3.521 1.997,6.891 3.558,10.058 0.897,-0.498 1.472,-1.329 2.142,-2.05 1.585,-1.706 3.357,-3.207 6.882,-3.011 1.91,-0.101 3.539,-0.365 4.849,-0.847 1.051,-0.386 1.871,-0.896 2.372,-1.631 0.462,-0.678 0.623,-1.515 0.539,-2.519 z M 48.278,62 H 55.03 L 68.376,45.074 66.553,42.761 C 66.175,42.282 65.605,42 65,42 c -0.605,0 -1.175,0.282 -1.553,0.761 z M 16,62 h 3 V 55.662 C 18.479,55.482 17.98,55.234 17.514,54.926 17.04,55.24 16.532,55.491 16,55.671 Z m 21.59,24.615 -6.53,4.081 c -0.617,0.385 -1.394,0.406 -2.03,0.053 C 28.395,90.397 28,89.727 28,89 V 79 c 0,-0.727 0.395,-1.397 1.03,-1.749 0.636,-0.353 1.413,-0.332 2.03,0.053 l 6.53,4.081 C 38.225,80.704 39.083,79.88 40.103,79.141 41.751,77.946 43.802,77 46,77 c 2.198,0 4.249,0.946 5.897,2.141 2.262,1.64 3.728,3.694 3.728,3.694 0.5,0.696 0.5,1.634 0,2.33 0,0 -1.466,2.054 -3.728,3.694 C 50.249,90.054 48.198,91 46,91 43.802,91 41.751,90.054 40.103,88.859 39.083,88.12 38.225,87.296 37.59,86.615 Z M 46,81 c -1.334,0 -2.549,0.654 -3.549,1.379 -0.735,0.533 -1.36,1.122 -1.834,1.621 0.474,0.499 1.099,1.088 1.834,1.621 1,0.725 2.215,1.379 3.549,1.379 1.334,0 2.549,-0.654 3.549,-1.379 C 50.284,85.088 50.909,84.499 51.383,84 50.909,83.501 50.284,82.912 49.549,82.379 48.549,81.654 47.334,81 46,81 Z M 34.226,84 32,82.608 v 2.784 z M 91,13 c 3.311,0 6,2.689 6,6 0,3.311 -2.689,6 -6,6 -3.311,0 -6,-2.689 -6,-6 0,-3.311 2.689,-6 6,-6 z m 0,4 c -1.104,0 -2,0.896 -2,2 0,1.104 0.896,2 2,2 1.104,0 2,-0.896 2,-2 0,-1.104 -0.896,-2 -2,-2 z M 35,56 c 1.104,0 2,0.896 2,2 0,1.104 -0.896,2 -2,2 -1.104,0 -2,-0.896 -2,-2 0,-1.104 0.896,-2 2,-2 z M 93,10 c 0,1.104 -0.896,2 -2,2 -1.104,0 -2,-0.896 -2,-2 V 8 c 0,-1.104 0.896,-2 2,-2 1.104,0 2,0.896 2,2 z m 5.778,4.05 c -0.78,0.781 -2.048,0.781 -2.828,0 -0.781,-0.78 -0.781,-2.048 0,-2.828 l 1.414,-1.414 c 0.78,-0.781 2.048,-0.781 2.828,0 0.781,0.78 0.781,2.048 0,2.828 z M 100,21 c -1.104,0 -2,-0.896 -2,-2 0,-1.104 0.896,-2 2,-2 h 2 c 1.104,0 2,0.896 2,2 0,1.104 -0.896,2 -2,2 z m -4.05,5.778 c -0.781,-0.78 -0.781,-2.048 0,-2.828 0.78,-0.781 2.048,-0.781 2.828,0 l 1.414,1.414 c 0.781,0.78 0.781,2.048 0,2.828 -0.78,0.781 -2.048,0.781 -2.828,0 z M 93,30 c 0,1.104 -0.896,2 -2,2 -1.104,0 -2,-0.896 -2,-2 v -2 c 0,-1.104 0.896,-2 2,-2 1.104,0 2,0.896 2,2 z m -8.364,-1.808 c -0.78,0.781 -2.048,0.781 -2.828,0 -0.781,-0.78 -0.781,-2.048 0,-2.828 l 1.414,-1.414 c 0.78,-0.781 2.048,-0.781 2.828,0 0.781,0.78 0.781,2.048 0,2.828 z M 80,21 c -1.104,0 -2,-0.896 -2,-2 0,-1.104 0.896,-2 2,-2 h 2 c 1.104,0 2,0.896 2,2 0,1.104 -0.896,2 -2,2 z m 1.808,-8.364 c -0.781,-0.78 -0.781,-2.048 0,-2.828 0.78,-0.781 2.048,-0.781 2.828,0 l 1.414,1.414 c 0.781,0.78 0.781,2.048 0,2.828 -0.78,0.781 -2.048,0.781 -2.828,0 z M 19.875,24 c -1.492,0 -2.894,-0.85 -3.623,-2.293 -0.11,-0.22 -0.18,-0.458 -0.204,-0.703 -0.247,-2.481 0.46,-4.726 1.984,-6.364 1.174,-1.263 2.86,-2.194 5.069,-2.517 C 24.074,8.482 27.889,6 32.961,6 c 3.298,0 6.208,1.07 8.021,2.559 0.925,0.759 1.585,1.635 1.965,2.558 1.673,0.252 2.957,0.891 3.95,1.704 1.928,1.578 2.756,3.89 3.008,5.697 0.22,1.587 -0.063,2.835 -0.24,3.186 -0.727,1.442 -2.129,2.292 -3.617,2.292 C 40.088,24 25.835,24 19.875,24 Z M 20,20 c 6.006,0 20.004,0 25.967,-0.004 C 45.86,19.089 45.166,15 41.328,15 c -1.104,0 -2,-0.895 -2,-2 0,-0.512 -0.39,-0.944 -0.884,-1.35 C 37.21,10.637 35.204,10 32.961,10 c -3.343,0 -6.103,1.374 -6.103,4 0,1.105 -0.895,2 -2,2 -1.742,0 -3.069,0.473 -3.896,1.363 C 20.316,18.057 20.01,18.981 20,20 Z m 26.054,-0.005 c 0.028,-0.008 0.023,-0.06 0.039,-0.092 -0.008,0.017 -0.023,0.052 -0.039,0.092 z m -24.843,7.899 c -0.494,-0.987 -0.093,-2.189 0.895,-2.683 0.987,-0.494 2.189,-0.093 2.683,0.895 l 1,2 c 0.494,0.987 0.093,2.189 -0.895,2.683 -0.987,0.494 -2.189,0.093 -2.683,-0.895 z m 7,0 c -0.494,-0.987 -0.093,-2.189 0.895,-2.683 0.987,-0.494 2.189,-0.093 2.683,0.895 l 1,2 c 0.494,0.987 0.093,2.189 -0.895,2.683 -0.987,0.494 -2.189,0.093 -2.683,-0.895 z m -2,7 c -0.494,-0.987 -0.093,-2.189 0.895,-2.683 0.987,-0.494 2.189,-0.093 2.683,0.895 l 1,2 c 0.494,0.987 0.093,2.189 -0.895,2.683 -0.987,0.494 -2.189,0.093 -2.683,-0.895 z m 9,-7 c -0.494,-0.987 -0.093,-2.189 0.895,-2.683 0.987,-0.494 2.189,-0.093 2.683,0.895 l 1,2 c 0.494,0.987 0.093,2.189 -0.895,2.683 -0.987,0.494 -2.189,0.093 -2.683,-0.895 z m -2,7 c -0.494,-0.987 -0.093,-2.189 0.895,-2.683 0.987,-0.494 2.189,-0.093 2.683,0.895 l 1,2 c 0.494,0.987 0.093,2.189 -0.895,2.683 -0.987,0.494 -2.189,0.093 -2.683,-0.895 z m 9,-7 c -0.494,-0.987 -0.093,-2.189 0.895,-2.683 0.987,-0.494 2.189,-0.093 2.683,0.895 l 1,2 c 0.494,0.987 0.093,2.189 -0.895,2.683 -0.987,0.494 -2.189,0.093 -2.683,-0.895 z m -2,7 c -0.494,-0.987 -0.093,-2.189 0.895,-2.683 0.987,-0.494 2.189,-0.093 2.683,0.895 l 1,2 c 0.494,0.987 0.093,2.189 -0.895,2.683 -0.987,0.494 -2.189,0.093 -2.683,-0.895 z m -0.344,18.822 c -0.395,1.031 -1.553,1.546 -2.584,1.151 -1.03,-0.395 -1.546,-1.553 -1.151,-2.584 0.751,-1.958 2.091,-3.39 4.175,-4.16 1.036,-0.382 2.187,0.149 2.569,1.184 0.382,1.036 -0.148,2.187 -1.184,2.569 -0.917,0.338 -1.495,0.979 -1.825,1.84 z"
         id="path9-1" /></g><g
       id="g31"
       transform="matrix(0.12429769,0,0,0.12429769,35.771372,-16.040831)"><path
         fill="#7cb2f8"
         d="M 52,41 H 12 a 20,20 0 0 0 40,0 z"
         id="path1-8" /><path
         fill="#4b9d93"
         d="m 25.02,48.98 -0.97,0.97 a 1.063,1.063 0 0 1 -0.11,0.09 l -3.45,2.6 A 0.991,0.991 0 0 0 20.1,53.6 l 0.66,3.93 A 19.945,19.945 0 0 1 12,41 h 12.5 l -2.05,4.11 a 1,1 0 0 0 0.44,1.34 l 1.87,0.93 a 1,1 0 0 1 0.26,1.6 z"
         id="path2-8" /><path
         fill="#4b9d93"
         d="M 50.48,48.64 A 20,20 0 0 1 32,61 19.373,19.373 0 0 1 27.8,60.55 l 3.91,-7.04 A 1.029,1.029 0 0 1 32.59,53 h 4.56 a 1,1 0 0 0 0.99,-0.84 l 0.7,-4.2 a 1,1 0 0 1 1.13,-0.82 z"
         id="path3-3" /><path
         fill="#92e016"
         d="m 39,22 c 0,6.075 -3.134,11 -7,11 -3.866,0 -7,-4.925 -7,-11 0,-6.075 7,-14 7,-14 0,0 7,7.925 7,14 z"
         id="path4-5" /><path
         fill="#5eb71b"
         d="m 22,28.5 c 0,4.142 -2.239,7.5 -5,7.5 -2.761,0 -5,-3.358 -5,-7.5 0,-4.142 5,-9.5 5,-9.5 0,0 5,5.358 5,9.5 z"
         id="path5-2" /><path
         fill="#5eb71b"
         d="m 52,28.5 c 0,4.142 -2.239,7.5 -5,7.5 -2.761,0 -5,-3.358 -5,-7.5 0,-4.142 5,-9.5 5,-9.5 0,0 5,5.358 5,9.5 z"
         id="path6-2" /><circle
         cx="54"
         cy="10"
         r="3"
         fill="#d98285"
         id="circle6" /><path
         fill="#5ec5f7"
         d="m 16.5,6 a 3.454,3.454 0 0 0 -1.514,0.358 3.488,3.488 0 0 0 -6.972,0 A 3.454,3.454 0 0 0 6.5,6 a 3.5,3.5 0 0 0 0,7 h 10 a 3.5,3.5 0 0 0 0,-7 z"
         id="path7-6" /><path
         d="m 12,40 a 1,1 0 0 0 -1,1 21,21 0 0 0 42,0 1,1 0 0 0 -1,-1 h -4 v -3.123 c 2.871,-0.657 5,-4.1 5,-8.377 0,-4.485 -5.054,-9.952 -5.269,-10.182 a 1.031,1.031 0 0 0 -1.462,0 C 46.054,18.548 41,24.015 41,28.5 c 0,4.281 2.129,7.72 5,8.377 V 40 H 33 V 33.9 C 37,33.182 40,28.218 40,22 40,15.62 33.045,7.673 32.75,7.338 a 1.033,1.033 0 0 0 -1.5,0 C 30.955,7.673 24,15.62 24,22 c 0,6.219 3,11.183 7,11.9 V 40 H 18 v -3.123 c 2.871,-0.657 5,-4.1 5,-8.377 0,-4.485 -5.054,-9.952 -5.269,-10.182 a 1.031,1.031 0 0 0 -1.462,0 C 16.054,18.548 11,24.015 11,28.5 c 0,4.281 2.129,7.72 5,8.377 V 40 Z M 32,60 A 19.091,19.091 0 0 1 29.364,59.8 L 32.59,54 h 4.56 a 1.993,1.993 0 0 0 1.976,-1.675 L 39.826,48.13 49,49.439 A 19.008,19.008 0 0 1 32,60 Z M 43,28.5 c 0,-2.6 2.451,-6.108 4,-7.979 1.549,1.871 4,5.381 4,7.979 0,2.964 -1.3,5.533 -3,6.277 V 30 h -2 v 4.777 C 44.3,34.033 43,31.464 43,28.5 Z M 26,22 c 0,-4.479 4.241,-10.239 6,-12.434 1.759,2.195 6,7.955 6,12.434 0,4.853 -2.2,9.022 -5,9.843 V 24 h -2 v 7.843 C 28.2,31.022 26,26.853 26,22 Z m -0.881,20 h 25.855 a 18.866,18.866 0 0 1 -1.141,5.538 L 40.117,46.151 A 2.009,2.009 0 0 0 37.854,47.8 l -0.7,4.2 H 32.59 a 2.034,2.034 0 0 0 -1.754,1.024 L 27.3,59.39 a 18.913,18.913 0 0 1 -5.625,-2.446 l -0.584,-3.506 3.458,-2.605 a 2.28,2.28 0 0 0 0.207,-0.176 l 0.97,-0.97 a 2,2 0 0 0 -0.522,-3.2 l -1.86,-0.928 z M 13,28.5 c 0,-2.6 2.451,-6.108 4,-7.979 1.549,1.871 4,5.381 4,7.979 0,2.964 -1.3,5.533 -3,6.277 V 30 h -2 v 4.777 C 14.3,34.033 13,31.464 13,28.5 Z M 22.884,42 21.56,44.656 a 2,2 0 0 0 0.885,2.69 l 1.868,0.927 -0.975,0.969 -3.438,2.591 a 1.983,1.983 0 0 0 -0.786,1.933 l 0.23,1.369 A 18.946,18.946 0 0 1 13.026,42 Z"
         id="path8-6" /><path
         d="m 54,14 a 4,4 0 1 0 -4,-4 4,4 0 0 0 4,4 z m 0,-6 a 2,2 0 1 1 -2,2 2,2 0 0 1 2,-2 z"
         id="path9-7" /><rect
         width="2"
         height="2"
         x="53"
         y="16"
         id="rect9" /><rect
         width="2"
         height="2"
         x="60"
         y="9"
         id="rect10" /><rect
         width="2"
         height="2"
         x="46"
         y="9"
         id="rect11" /><rect
         width="2"
         height="2"
         x="53"
         y="2"
         id="rect12" /><rect
         width="2"
         height="2"
         x="48.049999"
         y="13.95"
         transform="rotate(-45,49.05,14.95)"
         id="rect13" /><rect
         width="2"
         height="2"
         x="57.950001"
         y="13.95"
         transform="rotate(-45,58.95,14.95)"
         id="rect14" /><rect
         width="2"
         height="2"
         x="48.049999"
         y="4.0500002"
         transform="rotate(-45,49.05,5.05)"
         id="rect15" /><rect
         width="2"
         height="2"
         x="57.950001"
         y="4.0500002"
         transform="rotate(-45,58.95,5.05)"
         id="rect16" /><path
         d="m 6.5,14 h 10 a 4.5,4.5 0 0 0 0,-9 4.312,4.312 0 0 0 -0.744,0.064 4.488,4.488 0 0 0 -8.512,0 A 4.312,4.312 0 0 0 6.5,5 a 4.5,4.5 0 0 0 0,9 z m 0,-7 A 2.47,2.47 0 0 1 7.579,7.258 1,1 0 0 0 9.013,6.4 2.489,2.489 0 0 1 13.987,6.4 1,1 0 0 0 15.421,7.26 2.47,2.47 0 0 1 16.5,7 a 2.5,2.5 0 0 1 0,5 h -10 a 2.5,2.5 0 0 1 0,-5 z"
         id="path16-8" /></g><g
       id="g2"
       transform="matrix(0.17534076,0,0,0.17534076,80.805606,1.5142296)"
       style="stroke-width:1.72349;stroke-dasharray:none"><path
         fill="#8cc78c"
         d="M 67.962,25.626 C 59.365,21.875 50.995,8 50,8 49.005,8 41.902,21.153 32.032,25.629 c -0.691,0.314 -1.074,0.952 -1.028,1.6 0.044,0.644 3.311,3.579 9.046,2.84 1.817,3.732 7.742,4.296 9.951,2.287 3.588,2.357 9.904,0.621 9.904,-2.504 5.104,1.562 9.049,-1.982 9.093,-2.627 0.044,-0.648 -0.34,-1.296 -1.036,-1.599 z"
         id="path1"
         style="stroke-width:1.72349;stroke-dasharray:none" /><path
         fill="#8cc78c"
         d="m 40.79,31.5 c -5.283,5.908 -12.353,11.019 -17.27,13.316 -1.001,0.469 -1.579,1.328 -1.515,2.23 0.045,0.597 3.438,6.654 12.672,5.466 4.275,4.207 11.46,4.395 15.323,1.703 5.335,2.694 11.082,2.033 14.629,-1.545 10.346,1.123 13.323,-5.015 13.367,-5.627 C 78.06,46.14 77.475,45.284 76.469,44.811 71.612,42.562 64.48,37.604 59.206,31.762"
         id="path2"
         style="stroke-width:1.72349;stroke-dasharray:none" /><path
         fill="#8cc78c"
         d="m 33.99,53 c -6.276,6.005 -12.855,10.877 -18.036,13.301 -1.286,0.61 -2.029,1.715 -1.948,2.88 0.056,0.737 3.641,7.83 14.691,6.164 5.994,4.259 14.12,5.148 21.298,3.084 8.388,2.238 14.374,0.811 19.049,-2.82 9.673,0.779 16.647,-4.014 16.941,-6.426 0.141,-1.164 -0.67,-2.276 -1.964,-2.886 C 78.743,63.841 72.217,59.548 65.869,53.395"
         id="path3"
         style="stroke-width:1.72349;stroke-dasharray:none" /><path
         fill="none"
         stroke="#1f212b"
         stroke-linecap="round"
         stroke-linejoin="round"
         stroke-miterlimit="10"
         stroke-width="2"
         d="M 67.962,25.626 C 59.365,21.875 50.995,8 50,8 49.005,8 41.902,21.153 32.032,25.629 c -0.691,0.314 -1.074,0.952 -1.028,1.6 0.044,0.644 3.311,3.579 9.046,2.84 1.817,3.732 7.742,4.296 9.951,2.287 3.588,2.357 9.904,0.621 9.904,-2.504 5.104,1.562 9.049,-1.982 9.093,-2.627 0.044,-0.648 -0.34,-1.296 -1.036,-1.599 z"
         id="path4"
         style="fill:#98bb98;fill-opacity:1;stroke-width:1.72349;stroke-dasharray:none" /><polyline
         fill="#b77748"
         points="57,78.5 57,91.5 43,91.5 43,78.5"
         id="polyline6"
         style="fill:#6b4f3a;fill-opacity:1;stroke-width:1.72349;stroke-dasharray:none" /><path
         fill="none"
         stroke="#1f212b"
         stroke-linecap="round"
         stroke-linejoin="round"
         stroke-miterlimit="10"
         stroke-width="2"
         d="m 40.79,31.5 c -5.283,5.908 -12.353,11.019 -17.27,13.316 -1.001,0.469 -1.579,1.328 -1.515,2.23 0.045,0.597 3.438,6.654 12.672,5.466 4.275,4.207 11.46,4.395 15.323,1.703 5.335,2.694 11.082,2.033 14.629,-1.545 10.346,1.123 13.323,-5.015 13.367,-5.627 C 78.06,46.14 77.475,45.284 76.469,44.811 71.612,42.562 64.48,37.604 59.206,31.762"
         id="path7"
         style="fill:#98bb98;fill-opacity:1;stroke-width:1.72349;stroke-dasharray:none"
         sodipodi:nodetypes="ccccccccc" /><path
         fill="none"
         stroke="#1f212b"
         stroke-linecap="round"
         stroke-linejoin="round"
         stroke-miterlimit="10"
         stroke-width="2"
         d="m 33.99,53 c -6.276,6.005 -12.855,10.877 -18.036,13.301 -1.286,0.61 -2.029,1.715 -1.948,2.88 0.056,0.737 3.641,7.83 14.691,6.164 5.994,4.259 14.12,5.148 21.298,3.084 8.388,2.238 14.374,0.811 19.049,-2.82 9.673,0.779 16.647,-4.014 16.941,-6.426 0.141,-1.164 -0.67,-2.276 -1.964,-2.886 C 78.743,63.841 72.217,59.548 65.869,53.395"
         id="path8"
         style="fill:#98bb98;fill-opacity:1;stroke-width:1.72349;stroke-dasharray:none" /><polyline
         fill="none"
         stroke="#1f212b"
         stroke-linecap="round"
         stroke-linejoin="round"
         stroke-miterlimit="10"
         stroke-width="2"
         points="57,80 57,91.5 43,91.5 43,80"
         id="polyline11"
         style="fill:#6b4f3a;fill-opacity:1;stroke-width:1.72349;stroke-dasharray:none"
         transform="translate(0.15479965,0.61919812)" /></g><g
       id="g3"
       transform="matrix(0.10041481,0.05649724,-0.05649724,0.10041481,64.948418,-17.492542)"
       style="stroke-width:3.0797;stroke-dasharray:none"><path
         fill="#37474f"
         d="m -62.383213,41.797017 h 38.8164 v 16.820439 h -38.8164 z"
         id="path1-3"
         style="fill:#263136;fill-opacity:1;stroke-width:3.0797;stroke-dasharray:none" /><path
         fill="#37474f"
         d="m -42.975013,50.854177 a 19.4082,7.76328 0 1 0 0,15.526559 19.4082,7.76328 0 1 0 0,-15.526559 z"
         id="path2-2"
         style="fill:#232d33;fill-opacity:1;stroke:none;stroke-width:3.0797;stroke-dasharray:none;stroke-opacity:1" /><path
         fill="#78909c"
         d="m -44.139505,26.529233 -29.1123,12.809411 c -1.035103,0.517553 -1.035103,1.94082 0,2.458373 l 29.1123,12.809411 c 0.776328,0.258777 1.552656,0.258777 2.328984,0 l 29.1123,-12.809411 c 1.035104,-0.517553 1.035104,-1.94082 0,-2.458373 l -29.1123,-12.809411 c -0.776328,-0.388164 -1.552656,-0.388164 -2.328984,0 z"
         id="path3-6"
         style="fill:#565e62;fill-opacity:1;stroke:#1f212b;stroke-width:3.0797;stroke-dasharray:none;stroke-opacity:1"
         sodipodi:nodetypes="ccccccccc" /><path
         fill="#37474f"
         d="m -18.132517,42.314569 -25.8776,-4.399192 c -0.646939,-0.129388 -1.423268,0.388164 -1.552656,1.035103 -0.129388,0.64694 0.388164,1.423269 1.035104,1.552657 l 24.842496,4.140416 8.253545,14.50566 c 0.383926,0.674751 0.517553,1.293879 1.29388,1.293879 0.7763278,0 1.6580138,-0.608246 1.2938808,-1.293879 L -17.097413,43.608448 c -0.303445,-0.57136 -0.517552,-1.164491 -1.035104,-1.293879 z"
         id="path4-9"
         sodipodi:nodetypes="ccsccssssc"
         style="fill:#1f212b;fill-opacity:1;stroke:#1f212b;stroke-width:1.0928;stroke-dasharray:none;stroke-opacity:1" /><path
         fill="#37474f"
         d="m -10.785881,57.53948 a 2.5877601,2.5877601 0 1 0 2.4208918,4.574416 2.5877601,2.5877601 0 1 0 -2.4208918,-4.574416 z"
         id="path5-4"
         style="fill:#1f212b;fill-opacity:1;stroke-width:3.0797;stroke-dasharray:none" /><path
         fill="#37474f"
         d="m -4.3289515,61.441831 c 1.0288775,1.944127 0.2005265,8.677294 0.2005265,8.677294 0,0 -6.033272,-3.101828 -7.062152,-5.045954 -1.028879,-1.944128 -0.328991,-4.217602 1.6151418,-5.246483 1.944129,-1.028879 4.2176035,-0.328989 5.2464837,1.615143 z"
         id="path6-1"
         style="fill:#1f212b;fill-opacity:1;stroke-width:3.0797;stroke-dasharray:none" /><path
         style="opacity:0.99568;fill:none;fill-opacity:1;stroke:#1f212b;stroke-width:3.0797;stroke-linecap:round;stroke-linejoin:round;stroke-dasharray:none;stroke-opacity:1"
         d="m -62.185715,47.364059 c -0.07677,3.991768 -0.153549,7.983535 -0.230323,11.975303 0.958015,2.038789 2.713965,3.557561 4.783197,4.408785 5.486651,2.617229 11.724612,2.541469 17.667637,2.590243 3.269461,-0.131662 6.521575,-0.783377 9.640088,-1.753719 2.450339,-1.032576 4.994643,-2.417475 6.44281,-4.723816 0.696793,-1.27663 0.282917,-2.76972 0.393947,-4.159107 l -8.6e-4,-7.986239"
         id="path30"
         sodipodi:nodetypes="cccccccc" /></g><g
       id="g37"
       transform="matrix(0.02332564,0.0131239,-0.0131239,0.02332564,41.709388,-15.374487)"
       style="stroke-width:3.0797;stroke-dasharray:none"><path
         fill="#37474f"
         d="m -62.383213,41.797017 h 38.8164 v 16.820439 h -38.8164 z"
         id="path31"
         style="fill:#263136;fill-opacity:1;stroke-width:3.0797;stroke-dasharray:none" /><path
         fill="#37474f"
         d="m -42.975013,50.854177 a 19.4082,7.76328 0 1 0 0,15.526559 19.4082,7.76328 0 1 0 0,-15.526559 z"
         id="path32"
         style="fill:#232d33;fill-opacity:1;stroke:none;stroke-width:3.0797;stroke-dasharray:none;stroke-opacity:1" /><path
         fill="#78909c"
         d="m -44.139505,26.529233 -29.1123,12.809411 c -1.035103,0.517553 -1.035103,1.94082 0,2.458373 l 29.1123,12.809411 c 0.776328,0.258777 1.552656,0.258777 2.328984,0 l 29.1123,-12.809411 c 1.035104,-0.517553 1.035104,-1.94082 0,-2.458373 l -29.1123,-12.809411 c -0.776328,-0.388164 -1.552656,-0.388164 -2.328984,0 z"
         id="path33"
         style="fill:#34393c;fill-opacity:1;stroke:#000000;stroke-width:6.80013;stroke-dasharray:none;stroke-opacity:1"
         sodipodi:nodetypes="ccccccccc" /><path
         fill="#37474f"
         d="m -18.132517,42.314569 -25.8776,-4.399192 c -0.646939,-0.129388 -1.423268,0.388164 -1.552656,1.035103 -0.129388,0.64694 0.388164,1.423269 1.035104,1.552657 l 24.842496,4.140416 8.253545,14.50566 c 0.383926,0.674751 0.517553,1.293879 1.29388,1.293879 0.7763278,0 1.6580138,-0.608246 1.2938808,-1.293879 L -17.097413,43.608448 c -0.303445,-0.57136 -0.517552,-1.164491 -1.035104,-1.293879 z"
         id="path34"
         sodipodi:nodetypes="ccsccssssc"
         style="fill:#1f212b;fill-opacity:1;stroke:#000000;stroke-width:4.81987;stroke-dasharray:none;stroke-opacity:1" /><path
         fill="#37474f"
         d="m -10.785881,57.53948 a 2.5877601,2.5877601 0 1 0 2.4208918,4.574416 2.5877601,2.5877601 0 1 0 -2.4208918,-4.574416 z"
         id="path35"
         style="fill:#1f212b;fill-opacity:1;stroke-width:3.0797;stroke-dasharray:none" /><path
         fill="#37474f"
         d="m -2.1053205,58.570145 c 1.80477985,3.117811 0.8678039,14.188947 0.8678039,14.188947 0,0 -10.0670574,-4.701314 -11.8718414,-7.819123 -1.804782,-3.117811 -0.800715,-6.882145 2.317105,-8.686931 3.1178138,-1.804782 6.8821478,-0.800711 8.6869325,2.317107 z"
         id="path36"
         style="fill:#000000;fill-opacity:1;stroke-width:5.04393;stroke-dasharray:none" /><path
         style="opacity:0.99568;fill:none;fill-opacity:1;stroke:#000000;stroke-width:6.80013;stroke-linecap:round;stroke-linejoin:round;stroke-dasharray:none;stroke-opacity:1"
         d="m -62.185715,47.364059 c -0.07677,3.991768 -0.153549,7.983535 -0.230323,11.975303 0.958015,2.038789 2.713965,3.557561 4.783197,4.408785 5.486651,2.617229 11.724612,2.541469 17.667637,2.590243 3.269461,-0.131662 6.521575,-0.783377 9.640088,-1.753719 2.450339,-1.032576 4.994643,-2.417475 6.44281,-4.723816 0.696793,-1.27663 0.282917,-2.76972 0.393947,-4.159107 l -8.6e-4,-7.986239"
         id="path37"
         sodipodi:nodetypes="cccccccc" /></g><path
       style="opacity:1;fill:#98bb98;fill-opacity:1;stroke:none;stroke-width:0.274455;stroke-linecap:round;stroke-linejoin:round;stroke-dasharray:none;stroke-opacity:1"
       d="m 87.903797,5.804352 0.01802,0.7188409 c 0,0 0.151794,0.2655455 0.162672,0.4131536 0.01178,0.1598023 -0.08825,0.3867281 -0.08825,0.3867281 l -1.452946,2.9416924 c 0,0 0.361734,0.14801 0.36428,0.415755 0.0028,0.288064 -0.216697,0.83365 -0.216697,0.83365 l 1.68859,1.086721 3.467778,-0.480681 0.756091,-0.577476 c 0,0 -0.26804,-0.380627 -0.272575,-0.656067 -0.0041,-0.24707 0.267632,-0.380869 0.267632,-0.380869 L 91.2814,7.570022 c 0,0 -0.121492,-0.1975062 -0.152573,-0.6411988 C 91.107288,6.621388 91.31261,6.4812829 91.31261,6.4812829 Z"
       id="path66"
       sodipodi:nodetypes="ccsccsccccsccscc" /><g
       id="g67"
       transform="translate(3.0994684,0.12782687)"><path
         fill="#ffffff"
         d="m 84.266689,11.698074 v 0.610776 c 0,0.08982 -0.07186,0.17964 -0.17964,0.17964 h -9.161642 c -0.08982,0 -0.17964,-0.07186 -0.17964,-0.17964 v -0.610776 c 0,-0.08982 0.07186,-0.17964 0.17964,-0.17964 h 9.161642 c 0.107784,0.01796 0.17964,0.08982 0.17964,0.17964 z"
         id="path1-2"
         style="opacity:0.758099;stroke:#000000;stroke-width:0.114463;stroke-dasharray:none;stroke-opacity:1" /><rect
         width="8.5329018"
         height="5.0119567"
         x="75.248756"
         y="12.48849"
         fill="#ffffff"
         id="rect1"
         style="opacity:0.758099;stroke:#000000;stroke-width:0.114463;stroke-dasharray:none;stroke-opacity:1" /><path
         fill="#ffffff"
         d="m 84.643933,17.913619 v 0.574848 H 74.386487 v -0.574848 c 0,-0.233532 0.17964,-0.431136 0.431136,-0.431136 h 9.395174 c 0.233532,0.01796 0.431136,0.197604 0.431136,0.431136 z"
         id="path2-5"
         style="opacity:0.758099;stroke:#000000;stroke-width:0.114463;stroke-dasharray:none;stroke-opacity:1" /><path
         fill="#ffffff"
         d="m 77.781684,14.213035 v 3.287412 h -1.688617 v -3.287412 c 0,-0.467065 0.377244,-0.844309 0.844309,-0.844309 v 0 c 0.467064,0 0.844308,0.377244 0.844308,0.844309 z"
         id="path3-1"
         style="opacity:0.758099;stroke:#000000;stroke-width:0.114463;stroke-dasharray:none;stroke-opacity:1" /><path
         fill="#ffffff"
         d="m 80.350536,14.213035 v 3.287412 H 78.66192 v -3.287412 c 0,-0.467065 0.377244,-0.844309 0.844308,-0.844309 0.233532,0 0.4491,0.08982 0.592812,0.251496 0.161676,0.143712 0.251496,0.35928 0.251496,0.592813 z"
         id="path4-39"
         style="opacity:0.758099;stroke:#000000;stroke-width:0.114463;stroke-dasharray:none;stroke-opacity:1" /><path
         fill="#ffffff"
         d="m 82.919389,14.213035 v 3.287412 h -1.688617 v -3.287412 c 0,-0.467065 0.377244,-0.844309 0.844308,-0.844309 v 0 c 0.467064,0 0.844309,0.377244 0.844309,0.844309 z"
         id="path5-73"
         style="opacity:0.758099;stroke:#000000;stroke-width:0.114463;stroke-dasharray:none;stroke-opacity:1" /><path
         fill="#ffffff"
         d="M 84.536149,11.536398 H 74.494271 c -0.161676,0 -0.233532,-0.215568 -0.107784,-0.305388 l 5.029921,-3.8442966 c 0.05389,-0.053892 0.143712,-0.053892 0.215568,0 l 5.011957,3.8442966 c 0.125748,0.08982 0.05389,0.305388 -0.107784,0.305388 z"
         id="path6-7"
         style="opacity:0.758099;stroke:#000000;stroke-width:0.114463;stroke-dasharray:none;stroke-opacity:1" /><path
         fill="#ffffff"
         d="m 84.266689,11.698074 v 0.610776 c 0,0.08982 -0.07186,0.17964 -0.17964,0.17964 h -9.161642 c -0.08982,0 -0.17964,-0.07186 -0.17964,-0.17964 v -0.610776 c 0,-0.08982 0.07186,-0.17964 0.17964,-0.17964 h 9.161642 c 0.107784,0.01796 0.17964,0.08982 0.17964,0.17964 z"
         id="path8-2"
         style="opacity:0.99729;fill:#c1c1c0;fill-opacity:1;stroke:#000000;stroke-width:0.114463;stroke-dasharray:none;stroke-opacity:1" /><rect
         width="8.5329018"
         height="5.0119567"
         x="75.248756"
         y="12.48849"
         fill="#ffffff"
         id="rect8"
         style="opacity:0.758099;stroke:#000000;stroke-width:0.114463;stroke-dasharray:none;stroke-opacity:1" /><path
         fill="#ffffff"
         d="m 84.643933,17.913619 v 0.574848 H 74.386487 v -0.574848 c 0,-0.233532 0.17964,-0.431136 0.431136,-0.431136 h 9.395174 c 0.233532,0.01796 0.431136,0.197604 0.431136,0.431136 z"
         id="path9-18"
         style="opacity:0.758099;stroke:#000000;stroke-width:0.114463;stroke-dasharray:none;stroke-opacity:1" /><path
         fill="#ffffff"
         d="m 77.781684,14.213035 v 3.287412 h -1.688617 v -3.287412 c 0,-0.467065 0.377244,-0.844309 0.844309,-0.844309 v 0 c 0.467064,0 0.844308,0.377244 0.844308,0.844309 z"
         id="path10-7"
         style="opacity:0.758099;stroke:#000000;stroke-width:0.114463;stroke-dasharray:none;stroke-opacity:1" /><path
         fill="#ffffff"
         d="m 80.350536,14.213035 v 3.287412 H 78.66192 v -3.287412 c 0,-0.467065 0.377244,-0.844309 0.844308,-0.844309 0.233532,0 0.4491,0.08982 0.592812,0.251496 0.161676,0.143712 0.251496,0.35928 0.251496,0.592813 z"
         id="path11-1"
         style="opacity:0.758099;stroke:#000000;stroke-width:0.114463;stroke-dasharray:none;stroke-opacity:1" /><path
         fill="#ffffff"
         d="m 82.919389,14.213035 v 3.287412 h -1.688617 v -3.287412 c 0,-0.467065 0.377244,-0.844309 0.844308,-0.844309 v 0 c 0.467064,0 0.844309,0.377244 0.844309,0.844309 z"
         id="path12-5"
         style="opacity:0.758099;stroke:#000000;stroke-width:0.114463;stroke-dasharray:none;stroke-opacity:1" /><rect
         width="8.5329018"
         height="5.0119567"
         x="75.248756"
         y="12.48849"
         fill="#ffd550"
         id="rect15-8"
         style="opacity:0.758099;fill:#ababaa;fill-opacity:1;stroke:#000000;stroke-width:0.114463;stroke-dasharray:none;stroke-opacity:1" /><path
         fill="#efefef"
         d="m 84.643933,17.913619 v 0.574848 H 74.386487 v -0.574848 c 0,-0.233532 0.17964,-0.431136 0.431136,-0.431136 h 9.395174 c 0.233532,0.01796 0.431136,0.197604 0.431136,0.431136 z"
         id="path16-5"
         style="opacity:0.758099;fill:#9b9b9a;fill-opacity:1;stroke:#000000;stroke-width:0.114463;stroke-dasharray:none;stroke-opacity:1" /><path
         fill="#ffffff"
         d="m 77.781684,14.213035 v 3.287412 h -1.688617 v -3.287412 c 0,-0.467065 0.377244,-0.844309 0.844309,-0.844309 v 0 c 0.467064,0 0.844308,0.377244 0.844308,0.844309 z"
         id="path17-6"
         style="opacity:0.758099;fill:#838381;fill-opacity:1;stroke:#000000;stroke-width:0.114463;stroke-dasharray:none;stroke-opacity:1" /><path
         fill="#ffffff"
         d="m 80.350536,14.213035 v 3.287412 H 78.66192 v -3.287412 c 0,-0.467065 0.377244,-0.844309 0.844308,-0.844309 0.233532,0 0.4491,0.08982 0.592812,0.251496 0.161676,0.143712 0.251496,0.35928 0.251496,0.592813 z"
         id="path18-7"
         style="opacity:0.758099;fill:#91918f;fill-opacity:1;stroke:#000000;stroke-width:0.114463;stroke-dasharray:none;stroke-opacity:1" /><path
         fill="#ffffff"
         d="m 82.919389,14.213035 v 3.287412 h -1.688617 v -3.287412 c 0,-0.467065 0.377244,-0.844309 0.844308,-0.844309 v 0 c 0.467064,0 0.844309,0.377244 0.844309,0.844309 z"
         id="path19-9"
         style="opacity:0.758099;fill:#91918f;fill-opacity:1;stroke:#000000;stroke-width:0.114463;stroke-dasharray:none;stroke-opacity:1" /><path
         fill="#f95353"
         d="M 84.570801,11.640356 H 74.528923 c -0.161676,0 -0.233532,-0.215568 -0.107784,-0.305388 L 79.45106,7.4906716 c 0.05389,-0.053892 0.143712,-0.053892 0.215568,0 l 5.011957,3.8442964 c 0.125748,0.08982 0.05389,0.305388 -0.107784,0.305388 z"
         id="path20-4"
         style="opacity:0.996479;fill:#cdcdcd;fill-opacity:1;stroke:#000000;stroke-width:0.114463;stroke-dasharray:none;stroke-opacity:1" /><path
         d="m 84.194832,12.66813 c 0.197604,0 0.35928,-0.161676 0.35928,-0.35928 v -0.610776 h 0.08982 c 0.143712,0 0.287424,-0.08982 0.323352,-0.233532 0.05389,-0.143712 0,-0.305388 -0.125748,-0.395208 L 79.829579,7.2430014 c -0.125748,-0.08982 -0.305388,-0.08982 -0.431136,0 l -5.011956,3.8442966 c -0.125748,0.08982 -0.161676,0.251496 -0.125748,0.395208 0.05389,0.143712 0.17964,0.233532 0.323352,0.233532 h 0.08982 v 0.610776 c 0,0.197604 0.161676,0.35928 0.35928,0.35928 h 0.143712 v 4.652676 h -0.26946 c -0.341316,0 -0.610776,0.26946 -0.610776,0.610777 v 0.53892 c 0,0.107784 0.07186,0.17964 0.17964,0.17964 h 10.257445 c 0.107784,0 0.17964,-0.07186 0.17964,-0.17964 v -0.574848 c 0,-0.341316 -0.26946,-0.610777 -0.610776,-0.610777 h -0.26946 V 12.66813 Z m -4.580821,-5.1377046 5.029921,3.8263326 c 0.03593,0 -0.682632,0 -10.023913,0.01796 z m -4.58082,4.1856126 h 9.161641 v 0.592812 h -9.161641 z m 2.676636,5.604769 h -1.329336 v -3.107773 c 0,-0.35928 0.305388,-0.664668 0.664668,-0.664668 0.35928,0 0.664668,0.305388 0.664668,0.664668 z m 2.568852,0 h -1.329336 v -3.107773 c 0,-0.35928 0.305388,-0.664668 0.664668,-0.664668 0.35928,0 0.664668,0.305388 0.664668,0.664668 z m 2.568853,0 h -1.329336 v -3.107773 c 0,-0.35928 0.305388,-0.664668 0.664668,-0.664668 0.35928,0 0.664668,0.305388 0.664668,0.664668 z m 1.70658,0.592812 v 0.395208 h -9.880201 v -0.395208 c 0,-0.143712 0.107784,-0.251496 0.251496,-0.251496 h 9.395173 c 0.125748,0.01796 0.233532,0.125748 0.233532,0.251496 z M 83.69184,17.320807 h -0.485028 v -3.107773 c 0,-0.556884 -0.4491,-1.023948 -1.023948,-1.023948 -0.574848,0 -1.023948,0.4491 -1.023948,1.023948 v 3.107773 h -0.538921 v -3.107773 c 0,-0.556884 -0.4491,-1.023948 -1.023948,-1.023948 -0.556884,0 -1.023948,0.4491 -1.023948,1.023948 v 3.107773 h -0.520956 v -3.107773 c 0,-0.556884 -0.4491,-1.023948 -1.023948,-1.023948 -0.574848,0 -1.005984,0.467064 -1.005984,1.023948 v 0.859938 2.247835 H 75.536183 V 12.66813 h 8.173621 v 4.652677 z"
         id="path22"
         style="opacity:1;stroke:#000000;stroke-width:0;stroke-dasharray:none;stroke-opacity:1"
         sodipodi:nodetypes="sscsccccccscssccssssssssccscccccccccccssscccssscccssscsccsscsccsssccsssccsssccccccc" /></g></g></svg>
