<?xml version="1.0" encoding="UTF-8" standalone="no"?>
<!-- Created with Inkscape (http://www.inkscape.org/) -->

<svg
   width="100mm"
   height="30mm"
   viewBox="0 0 100 29.999997"
   version="1.1"
   id="svg1"
   xml:space="preserve"
   inkscape:version="1.4 (e7c3feb1, 2024-10-09)"
   sodipodi:docname="logo.svg"
   xmlns:inkscape="http://www.inkscape.org/namespaces/inkscape"
   xmlns:sodipodi="http://sodipodi.sourceforge.net/DTD/sodipodi-0.dtd"
   xmlns="http://www.w3.org/2000/svg"
   xmlns:svg="http://www.w3.org/2000/svg"><sodipodi:namedview
     id="namedview1"
     pagecolor="#ffffff"
     bordercolor="#000000"
     borderopacity="0.25"
     inkscape:showpageshadow="2"
     inkscape:pageopacity="0.0"
     inkscape:pagecheckerboard="0"
     inkscape:deskcolor="#d1d1d1"
     inkscape:document-units="mm"
     inkscape:zoom="1.8103325"
     inkscape:cx="203.00138"
     inkscape:cy="-7.4571935"
     inkscape:window-width="1392"
     inkscape:window-height="824"
     inkscape:window-x="1930"
     inkscape:window-y="397"
     inkscape:window-maximized="0"
     inkscape:current-layer="layer1" /><defs
     id="defs1">
	
	
	
	
	

	
	
	
	
	
	
	
	
	
	
	
	
	
	
</defs><g
     inkscape:label="Ebene 1"
     inkscape:groupmode="layer"
     id="layer1"><g
       id="g66"
       transform="matrix(0.1967987,0,0,0.1967987,0.18966399,-16.354232)"><path
         fill="#e89419"
         d="M 3,22 H 45 V 42 H 3 Z"
         id="path1-4" /><path
         fill="#c62828"
         d="M 31,3 V 7 H 28.8 C 26.4,7 27.6,6 24,6 V 2 c 3.6,0 2.4,1 4.8,1 z"
         id="path2-6" /><path
         fill="#805a26"
         d="m 6,26 h 3 v 5 H 6 Z m 5,0 h 3 v 5 h -3 z m 0,8 h 3 v 5 h -3 z m -5,0 h 3 v 5 H 6 Z m 28,-8 h 3 v 5 h -3 z m 5,0 h 3 v 5 h -3 z m 0,8 h 3 v 5 h -3 z m -5,0 h 3 v 5 h -3 z"
         id="path3-4" /><path
         fill="#00796b"
         d="m 3,17 h 42 v 6 H 3 Z"
         id="path4-3" /><path
         fill="#ffb74d"
         d="m 24,9.5 -7,7 V 42 H 31 V 16.5 Z"
         id="path5-8" /><path
         fill="#fafafa"
         d="m 24,19 a 5,5 0 1 0 0,10 5,5 0 1 0 0,-10 z"
         id="path6-4" /><path
         fill="#795548"
         d="m 26,25 h -2 c -0.6,0 -1,-0.4 -1,-1 v -2 c 0,-0.6 0.4,-1 1,-1 0.6,0 1,0.4 1,1 v 1 h 1 c 0.6,0 1,0.4 1,1 0,0.6 -0.4,1 -1,1 z"
         id="path7-0" /><path
         fill="#4db6ac"
         d="m 24,8 -9,9 v 2.9 l 9,-9 9,9 V 17 Z"
         id="path8-0" /><path
         fill="#805a26"
         d="m 24,32 c -1.7,0 -3,1.3 -3,3 0,1.7 0,7 0,7 h 6 c 0,0 0,-5.3 0,-7 0,-1.7 -1.3,-3 -3,-3 z"
         id="path9-9" /></g><g
       id="g59"
       transform="matrix(0.04596079,0,0,0.04596079,10.487427,-19.438973)"><path
         fill="#8cc78c"
         d="M 67.962,25.626 C 59.365,21.875 50.995,8 50,8 49.005,8 41.902,21.153 32.032,25.629 c -0.691,0.314 -1.074,0.952 -1.028,1.6 0.044,0.644 3.311,3.579 9.046,2.84 1.817,3.732 7.742,4.296 9.951,2.287 3.588,2.357 9.904,0.621 9.904,-2.504 5.104,1.562 9.049,-1.982 9.093,-2.627 0.044,-0.648 -0.34,-1.296 -1.036,-1.599 z"
         id="path49" /><path
         fill="#8cc78c"
         d="m 40.79,31.5 c -5.283,5.908 -12.353,11.019 -17.27,13.316 -1.001,0.469 -1.579,1.328 -1.515,2.23 0.045,0.597 3.438,6.654 12.672,5.466 4.275,4.207 11.46,4.395 15.323,1.703 5.335,2.694 11.082,2.033 14.629,-1.545 10.346,1.123 13.323,-5.015 13.367,-5.627 C 78.06,46.14 77.475,45.284 76.469,44.811 71.612,42.562 64.48,37.604 59.206,31.762"
         id="path50" /><path
         fill="#8cc78c"
         d="m 33.99,53 c -6.276,6.005 -12.855,10.877 -18.036,13.301 -1.286,0.61 -2.029,1.715 -1.948,2.88 0.056,0.737 3.641,7.83 14.691,6.164 5.994,4.259 14.12,5.148 21.298,3.084 8.388,2.238 14.374,0.811 19.049,-2.82 9.673,0.779 16.647,-4.014 16.941,-6.426 0.141,-1.164 -0.67,-2.276 -1.964,-2.886 C 78.743,63.841 72.217,59.548 65.869,53.395"
         id="path51" /><path
         fill="none"
         stroke="#1f212b"
         stroke-linecap="round"
         stroke-linejoin="round"
         stroke-miterlimit="10"
         stroke-width="2"
         d="M 67.962,25.626 C 59.365,21.875 50.995,8 50,8 49.005,8 41.902,21.153 32.032,25.629 c -0.691,0.314 -1.074,0.952 -1.028,1.6 0.044,0.644 3.311,3.579 9.046,2.84 1.817,3.732 7.742,4.296 9.951,2.287 3.588,2.357 9.904,0.621 9.904,-2.504 5.104,1.562 9.049,-1.982 9.093,-2.627 0.044,-0.648 -0.34,-1.296 -1.036,-1.599 z"
         id="path52" /><path
         fill="none"
         stroke="#1f212b"
         stroke-linecap="round"
         stroke-linejoin="round"
         stroke-miterlimit="10"
         d="m 40.932,24.5 c -0.598,0.517 -1.214,1.019 -1.848,1.5"
         id="path53" /><path
         fill="none"
         stroke="#1f212b"
         stroke-linecap="round"
         stroke-linejoin="round"
         stroke-miterlimit="10"
         d="m 47.982,17 c -1.273,1.6 -2.742,3.325 -4.391,5"
         id="path54" /><polyline
         fill="#b77748"
         points="57,78.5 57,91.5 43,91.5 43,78.5"
         id="polyline54" /><path
         fill="none"
         stroke="#1f212b"
         stroke-linecap="round"
         stroke-linejoin="round"
         stroke-miterlimit="10"
         stroke-width="2"
         d="m 40.79,31.5 c -5.283,5.908 -12.353,11.019 -17.27,13.316 -1.001,0.469 -1.579,1.328 -1.515,2.23 0.045,0.597 3.438,6.654 12.672,5.466 4.275,4.207 11.46,4.395 15.323,1.703 5.335,2.694 11.082,2.033 14.629,-1.545 10.346,1.123 13.323,-5.015 13.367,-5.627 C 78.06,46.14 77.475,45.284 76.469,44.811 71.612,42.562 64.48,37.604 59.206,31.762"
         id="path55"
         style="stroke-width:2.0051;stroke-dasharray:none" /><path
         fill="none"
         stroke="#1f212b"
         stroke-linecap="round"
         stroke-linejoin="round"
         stroke-miterlimit="10"
         stroke-width="2"
         d="m 33.99,53 c -6.276,6.005 -12.855,10.877 -18.036,13.301 -1.286,0.61 -2.029,1.715 -1.948,2.88 0.056,0.737 3.641,7.83 14.691,6.164 5.994,4.259 14.12,5.148 21.298,3.084 8.388,2.238 14.374,0.811 19.049,-2.82 9.673,0.779 16.647,-4.014 16.941,-6.426 0.141,-1.164 -0.67,-2.276 -1.964,-2.886 C 78.743,63.841 72.217,59.548 65.869,53.395"
         id="path56" /><path
         fill="none"
         stroke="#1f212b"
         stroke-linecap="round"
         stroke-linejoin="round"
         stroke-miterlimit="10"
         d="M 66,58.96 C 65.665,58.665 65.331,58.366 65,58.065"
         id="path57" /><path
         fill="none"
         stroke="#1f212b"
         stroke-linecap="round"
         stroke-linejoin="round"
         stroke-miterlimit="10"
         d="M 71.643,63.5 C 70.587,62.727 69.537,61.917 68.5,61.074"
         id="path58" /><path
         fill="none"
         stroke="#1f212b"
         stroke-linecap="round"
         stroke-linejoin="round"
         stroke-miterlimit="10"
         d="m 71.14,71.694 c 4.573,0 7.879,-1.391 9.655,-2.517 -2.072,-1.048 -4.18,-2.284 -6.283,-3.676"
         id="path59" /><polyline
         fill="none"
         stroke="#1f212b"
         stroke-linecap="round"
         stroke-linejoin="round"
         stroke-miterlimit="10"
         stroke-width="2"
         points="57,80 57,91.5 43,91.5 43,80"
         id="polyline59" /></g><text
       xml:space="preserve"
       style="font-weight:bold;font-size:11.4437px;font-family:Helvetica;-inkscape-font-specification:'Helvetica Bold';text-align:center;writing-mode:lr-tb;direction:ltr;text-anchor:middle;opacity:0.99568;fill:#82c582;fill-opacity:1;stroke:none;stroke-width:0.405487;stroke-linecap:round;stroke-linejoin:round;stroke-dasharray:none;stroke-opacity:1"
       x="35.872593"
       y="18.598379"
       id="text1"><tspan
         sodipodi:role="line"
         id="tspan1"
         style="font-size:11.4437px;fill:#82c582;fill-opacity:1;stroke:none;stroke-width:0.405487;stroke-dasharray:none;stroke-opacity:1"
         x="35.872593"
         y="18.598379">Lars Dietrich</tspan></text><text
       xml:space="preserve"
       style="font-weight:bold;font-size:5.72186px;font-family:Helvetica;-inkscape-font-specification:'Helvetica Bold';text-align:center;writing-mode:lr-tb;direction:ltr;text-anchor:middle;opacity:0.99568;fill:#010100;fill-opacity:0.988764;stroke-width:0.35994;stroke-linecap:round;stroke-linejoin:round"
       x="49.388344"
       y="25.832163"
       id="text2"><tspan
         sodipodi:role="line"
         id="tspan2"
         style="font-style:normal;font-variant:normal;font-weight:300;font-stretch:normal;font-size:5.72186px;font-family:Helvetica;-inkscape-font-specification:'Helvetica Light';stroke:none;stroke-width:0.35994;stroke-opacity:1"
         x="49.388344"
         y="25.832163">Science Education and Plant Ecology</tspan></text><path
       style="fill:#fcc938;stroke-width:0.144818"
       d="m 102.1014,-7.3688249 c -1.4e-4,-1.0338502 -0.8954,-1.8584385 -1.95286,-1.7411361 -0.825162,0.091535 -1.482489,0.7737568 -1.546932,1.6015331 -0.04647,0.5986739 0.208681,1.1389877 0.62894,1.4874173 0.150601,0.1249796 0.24228,0.3068677 0.24228,0.5025148 v 0 c 0,0.2150539 0.174366,0.3894135 0.389558,0.3894135 l 0.973604,-1.456e-4 c 0.21505,0 0.38941,-0.1743658 0.38941,-0.3895576 v -0.00387 c 0,-0.1944899 0.0923,-0.3743533 0.24185,-0.4984609 0.38724,-0.3212029 0.6343,-0.805183 0.63415,-1.3476686 z"
       id="path13" /><path
       style="fill:#472b29;stroke-width:0.144817"
       d="m 100.83585,-5.0275697 h -0.973753 c -0.270662,0 -0.490927,-0.220265 -0.490927,-0.4909261 0,-0.1614728 -0.07487,-0.31628 -0.205498,-0.4244614 -0.463126,-0.3843434 -0.711775,-0.9725888 -0.664998,-1.5735801 0.06907,-0.8842557 0.757394,-1.5967574 1.637156,-1.6940705 0.53597,-0.060104 1.04949,0.1045628 1.44745,0.4608075 0.39245,0.3514703 0.61764,0.8548526 0.61764,1.3814091 0,0.5523332 -0.24445,1.0719374 -0.67093,1.4257252 -0.13048,0.1081722 -0.20535,0.2613946 -0.20535,0.4202588 1.4e-4,0.2747182 -0.22013,0.4948375 -0.49079,0.4948375 z m -0.4847,-3.9920259 c -0.0633,0 -0.12687,0.00325 -0.19087,0.010379 -0.770431,0.085292 -1.396908,0.7337906 -1.457299,1.5085606 -0.04243,0.5433531 0.173492,1.0542717 0.592299,1.4016897 0.177114,0.146992 0.278776,0.3585651 0.278776,0.5805682 0,0.1588641 0.129332,0.2880402 0.288041,0.2880402 h 0.973753 c 0.15886,0 0.28804,-0.129317 0.28804,-0.2880402 0,-0.2234546 0.10152,-0.4335824 0.27863,-0.5804304 0.37985,-0.3149725 0.59766,-0.7776636 0.59766,-1.2696075 0,-0.4687728 -0.20057,-0.9174184 -0.55016,-1.2303678 -0.30672,-0.2747168 -0.69136,-0.4208382 -1.09887,-0.4208382 z"
       id="path20" /><path
       style="fill:#472b29;stroke-width:0.144817"
       d="m 100.59241,-5.4333445 c -0.02,0 -0.0362,-0.016203 -0.0362,-0.036202 0,-0.5140988 0.12425,-1.0387732 0.27298,-1.3662049 -0.002,-6.925e-4 -0.005,-0.00201 -0.007,-0.0031 -0.067,-0.027667 -0.13858,-0.069368 -0.20042,-0.1223617 -0.0711,0.040694 -0.16162,0.067184 -0.27255,0.067184 -0.11093,0 -0.20158,-0.026505 -0.27269,-0.067184 -0.0618,0.053149 -0.133528,0.094571 -0.200716,0.1225166 -0.0023,6.924e-4 -0.0045,0.00201 -0.0068,0.00294 0.148436,0.3274271 0.272836,0.852103 0.272836,1.3662034 0,0.019983 -0.0162,0.036202 -0.0362,0.036202 -0.02,0 -0.0362,-0.016219 -0.0362,-0.036202 0,-0.5101905 -0.122653,-1.0282023 -0.267473,-1.3426001 -0.153219,0.046348 -0.289778,0.033166 -0.360594,-0.037798 -0.03447,-0.034467 -0.05344,-0.080382 -0.05344,-0.1291776 0,-0.048656 0.01912,-0.094277 0.05344,-0.1287439 0.06878,-0.068779 0.188986,-0.068779 0.25763,0 0.0459,0.045915 0.09312,0.1167231 0.13858,0.2065123 0.0036,-0.00138 0.0071,-0.00294 0.01038,-0.00418 0.05575,-0.023019 0.114849,-0.056324 0.166827,-0.098181 -0.09471,-0.078058 -0.140327,-0.1837718 -0.140327,-0.2673337 0,-0.1005042 0.08168,-0.182325 0.182327,-0.182325 0.10064,0 0.18232,0.081683 0.18232,0.182325 0,0.098769 -0.0442,0.1855129 -0.10846,0.2569053 0.0582,0.029107 0.13077,0.04765 0.21838,0.04765 0.0875,0 0.15988,-0.018542 0.21824,-0.04765 -0.0643,-0.071397 -0.10847,-0.1582848 -0.10847,-0.2569053 0,-0.1005042 0.0817,-0.182325 0.18233,-0.182325 0.10064,0 0.18232,0.081683 0.18232,0.182325 0,0.083557 -0.0455,0.1892772 -0.14033,0.2673337 0.052,0.041856 0.11122,0.075161 0.16668,0.098041 0.004,0.00186 0.007,0.0031 0.0105,0.00434 0.0455,-0.089785 0.0927,-0.1604582 0.1386,-0.2065092 0.071,-0.070963 0.18652,-0.070963 0.25777,0 0.071,0.070963 0.071,0.1866686 0,0.2577744 -0.0708,0.070824 -0.20752,0.08413 -0.36074,0.037798 -0.14482,0.3143994 -0.26748,0.8322624 -0.26748,1.342597 2.3e-4,0.019983 -0.016,0.036357 -0.0359,0.036357 z m 0.33612,-1.4449849 c 0.12006,0.03346 0.22823,0.026226 0.27718,-0.022741 0.0427,-0.042863 0.0429,-0.112525 0,-0.155388 -0.043,-0.042724 -0.11266,-0.042724 -0.15539,0 -0.0404,0.040261 -0.0817,0.1010773 -0.12178,0.1781238 z m -1.358384,-0.2102765 c -0.0281,0 -0.05633,0.010689 -0.07762,0.032159 -0.02085,0.020851 -0.0323,0.048223 -0.0323,0.077624 0,0.029262 0.01146,0.057053 0.0323,0.077764 0.04909,0.04909 0.156835,0.056619 0.277033,0.02274 -0.04011,-0.077036 -0.08153,-0.1378679 -0.121789,-0.1781238 -0.02128,-0.021424 -0.04952,-0.032159 -0.07762,-0.032159 z m 1.070924,-0.2922399 c -0.0605,0 -0.10993,0.049385 -0.10993,0.1099226 0,0.083263 0.04,0.1571261 0.0982,0.2182388 0.0821,-0.063435 0.12165,-0.1498888 0.12165,-0.2182388 0,-0.060538 -0.0494,-0.1099226 -0.10992,-0.1099226 z m -0.58419,0 c -0.06054,0 -0.109926,0.049385 -0.109926,0.1099226 0,0.068345 0.03939,0.1548149 0.121646,0.2182388 0.0581,-0.061111 0.0982,-0.1349712 0.0982,-0.2182388 0,-0.060538 -0.0494,-0.1099226 -0.1099,-0.1099226 z"
       id="path21" /><g
       style="clip-rule:evenodd;fill-rule:evenodd"
       id="g30"
       transform="matrix(0.07454542,0,0,0.07454542,19.822665,-16.923867)"><path
         fill="#388e3c"
         d="M 43.154,64 C 43.511,64 61.877,41.523 61.877,41.523 62.636,40.56 63.785,40 65,40 c 1.215,0 2.364,0.56 3.123,1.523 l 2.8,3.551 L 70,64 Z"
         id="path1-5" /><ellipse
         cx="14"
         cy="48"
         fill="#388e3c"
         rx="5"
         ry="6"
         id="ellipse1" /><ellipse
         cx="21"
         cy="48"
         fill="#1b5e20"
         rx="5"
         ry="6"
         id="ellipse2" /><path
         fill="#1b5e20"
         d="M 56,64 76.877,37.523 C 77.636,36.56 78.785,36 80,36 c 1.215,0 2.364,0.56 3.123,1.523 l 16.898,21.43 C 97.449,58.33 94.763,58 92,58 84.842,58 78.198,60.217 72.718,64 Z"
         id="path2-4" /><path
         fill="#00b0ff"
         d="M 60.118,103.83 C 58.76,103.943 57.387,104 56,104 31.9,104 11.867,86.69 8,64 H 72.718 C 63.829,70.136 58,80.392 58,92 c 0,4.159 0.748,8.145 2.118,11.83 z"
         id="path3-9" /><path
         fill="#33691e"
         d="m 60.513,79.156 c -0.741,-1.379 -1.405,-2.882 -1.98,-4.519 -0.319,-0.909 -1.242,-1.461 -2.194,-1.313 -4.313,0.67 -8.225,-0.015 -10.462,-2.129 -1.685,-1.59 -2.434,-3.983 -1.723,-7.195 0,0 14.069,0 28.564,0 -5.41,3.734 -9.686,8.994 -12.205,15.156 z M 23,73 c 0.076,-0.004 -0.076,-0.005 0,0 -3.552,-0.234 -4.804,1.803 -6.417,3.466 -0.807,0.831 -1.703,1.569 -3.023,1.882 -0.184,0.044 -0.379,0.079 -0.583,0.105 C 10.582,74.004 8.876,69.14 8,64 h 24.433 c 0.011,0.031 0.407,4.25 -0.544,5.646 C 30.462,71.739 27.386,72.785 23,73 Z"
         id="path4-1" /><circle
         cx="92"
         cy="92"
         r="28"
         fill="#d4e157"
         id="circle4" /><circle
         cx="91"
         cy="19"
         r="4"
         fill="#ffc400"
         id="circle5" /><path
         fill="#9575cd"
         d="m 75.179,89.539 c 0,0 1.881,-0.322 2.257,-0.386 0.736,-0.1 1.386,-0.608 1.631,-1.361 0,0 0.001,-0.001 0.001,-0.002 0.219,-0.672 0.49,-1.327 0.811,-1.957 0.337,-0.662 0.279,-1.457 -0.151,-2.063 l -1.363,-1.924 c 0.52,-0.697 1.46,-1.627 2.232,-2.35 0.692,-0.649 1.249,-1.131 1.249,-1.131 0,0 1.558,1.103 1.869,1.324 0.591,0.449 1.41,0.549 2.116,0.191 0,0 10e-4,-10e-4 10e-4,-10e-4 0.631,-0.321 1.285,-0.592 1.958,-0.811 0.706,-0.23 1.227,-0.833 1.352,-1.565 l 0.397,-2.324 c 1.632,-0.239 3.29,-0.239 4.922,0 0,0 0.322,1.881 0.386,2.257 0.1,0.736 0.608,1.386 1.361,1.631 0,0 0.001,0.001 0.002,0.001 0.672,0.219 1.327,0.49 1.957,0.811 0.662,0.337 1.457,0.279 2.063,-0.151 l 1.924,-1.363 c 1.323,0.986 3.481,3.481 3.481,3.481 0,0 -1.103,1.558 -1.324,1.869 -0.449,0.591 -0.549,1.41 -0.191,2.116 0,0 10e-4,10e-4 10e-4,10e-4 0.321,0.631 0.592,1.285 0.811,1.958 0.23,0.706 0.833,1.227 1.565,1.352 l 2.324,0.397 v 4.922 c 0,0 -1.881,0.322 -2.257,0.386 -0.736,0.1 -1.386,0.608 -1.631,1.361 0,0 -0.001,0.001 -0.001,0.002 -0.219,0.672 -0.49,1.327 -0.811,1.957 -0.337,0.662 -0.279,1.457 0.151,2.063 l 1.363,1.924 -3.481,3.481 c 0,0 -1.558,-1.103 -1.869,-1.324 -0.591,-0.449 -1.41,-0.549 -2.116,-0.191 0,0 -10e-4,10e-4 -10e-4,10e-4 -0.631,0.321 -1.285,0.592 -1.958,0.811 -0.706,0.23 -1.227,0.833 -1.352,1.565 l -0.397,2.324 h -4.922 c 0,0 -0.322,-1.881 -0.386,-2.257 -0.1,-0.736 -0.608,-1.386 -1.361,-1.631 0,0 -0.001,-0.001 -0.002,-0.001 -0.672,-0.219 -1.327,-0.49 -1.957,-0.811 -0.662,-0.337 -1.457,-0.279 -2.063,0.151 l -1.924,1.363 -3.481,-3.481 c 0,0 1.103,-1.558 1.324,-1.869 0.449,-0.591 0.549,-1.41 0.191,-2.116 0,0 -10e-4,-10e-4 -10e-4,-10e-4 -0.321,-0.631 -0.592,-1.285 -0.811,-1.958 -0.23,-0.706 -0.833,-1.227 -1.565,-1.352 L 75.179,94.461 Z M 92,85 c -3.863,0 -7,3.137 -7,7 0,3.863 3.137,7 7,7 3.863,0 7,-3.137 7,-7 0,-3.863 -3.137,-7 -7,-7 z"
         id="path5-7" /><path
         fill="#b4e8ff"
         d="m 18.038,20.806 c 0.111,0.22 -0.024,-0.245 0,0 -0.186,-1.869 0.311,-3.57 1.459,-4.805 0.898,-0.966 2.202,-1.652 3.892,-1.898 0.791,-0.116 1.437,-0.691 1.644,-1.463 C 25.803,9.758 28.946,8 32.961,8 c 2.77,0 5.229,0.854 6.752,2.104 0.645,0.53 1.119,1.129 1.384,1.773 0.267,0.65 0.856,1.113 1.552,1.217 1.26,0.191 2.233,0.662 2.981,1.274 1.491,1.221 2.099,3.027 2.294,4.425 0.125,0.906 -0.052,1.929 -0.078,2.074 -0.379,0.699 -1.061,1.129 -1.798,1.129 H 46.047 C 40.087,22 25.834,22 19.875,22 19.113,22 18.41,21.543 18.038,20.806 Z"
         id="path6-5" /><path
         fill="#ffb300"
         d="M 30,89 V 79 l 8,5 z"
         id="path7-5" /><path
         fill="#ffb300"
         d="m 38,84 0.002,-0.003 c 0,0 6.232,-4.997 7.998,-4.997 1.766,0 7.998,4.997 7.998,4.997 0,0 -6.232,5.003 -7.998,5.003 -1.766,0 -8,-5 -8,-5 z"
         id="path8-4" /><path
         d="m 92,62 c 16.557,0 30,13.443 30,30 0,16.557 -13.443,30 -30,30 C 75.443,122 62,108.557 62,92 62,75.443 75.443,62 92,62 Z m 0,4 c -14.35,0 -26,11.65 -26,26 0,14.35 11.65,26 26,26 14.35,0 26,-11.65 26,-26 0,-14.35 -11.65,-26 -26,-26 z m 4.433,8.843 c 0,0 0.396,2.323 0.396,2.323 0.771,0.251 1.522,0.562 2.245,0.93 l 1.923,-1.363 c 0.707,-0.5 1.656,-0.489 2.351,0.028 1.479,1.102 2.789,2.412 3.891,3.891 0.517,0.695 0.528,1.644 0.028,2.351 0,0 -1.363,1.923 -1.363,1.923 0.368,0.723 0.679,1.473 0.93,2.245 l 2.323,0.396 c 0.854,0.146 1.517,0.825 1.643,1.682 0.267,1.824 0.267,3.678 0,5.502 -0.126,0.857 -0.789,1.536 -1.643,1.682 0,0 -2.323,0.396 -2.323,0.396 -0.251,0.771 -0.562,1.522 -0.93,2.245 l 1.363,1.923 c 0.5,0.707 0.489,1.656 -0.028,2.351 -1.102,1.479 -2.412,2.789 -3.891,3.891 -0.695,0.517 -1.644,0.528 -2.351,0.028 0,0 -1.923,-1.363 -1.923,-1.363 -0.723,0.368 -1.473,0.679 -2.245,0.93 l -0.396,2.323 c -0.146,0.854 -0.825,1.517 -1.682,1.643 -1.824,0.267 -3.678,0.267 -5.502,0 -0.857,-0.126 -1.536,-0.789 -1.682,-1.643 0,0 -0.396,-2.323 -0.396,-2.323 -0.771,-0.251 -1.522,-0.562 -2.245,-0.93 l -1.923,1.363 c -0.707,0.5 -1.656,0.489 -2.351,-0.028 -1.479,-1.102 -2.789,-2.412 -3.891,-3.891 -0.517,-0.695 -0.528,-1.644 -0.028,-2.351 0,0 1.363,-1.923 1.363,-1.923 -0.368,-0.723 -0.679,-1.473 -0.93,-2.245 l -2.323,-0.396 c -0.854,-0.146 -1.517,-0.825 -1.643,-1.682 -0.267,-1.824 -0.267,-3.678 0,-5.502 0.126,-0.857 0.789,-1.536 1.643,-1.682 0,0 2.323,-0.396 2.323,-0.396 0.251,-0.771 0.562,-1.522 0.93,-2.245 l -1.363,-1.923 c -0.5,-0.707 -0.489,-1.656 0.028,-2.351 1.102,-1.479 2.412,-2.789 3.891,-3.891 0.695,-0.517 1.644,-0.528 2.351,-0.028 0,0 1.923,1.363 1.923,1.363 0.723,-0.368 1.473,-0.679 2.245,-0.93 l 0.396,-2.323 c 0.146,-0.854 0.825,-1.517 1.682,-1.643 1.824,-0.267 3.678,-0.267 5.502,0 0.857,0.126 1.536,0.789 1.682,1.643 z m -3.687,2.176 c -0.497,-0.025 -0.995,-0.025 -1.492,0 l -0.353,2.069 c -0.136,0.794 -0.735,1.43 -1.52,1.612 -1.246,0.288 -2.435,0.781 -3.519,1.457 -0.684,0.427 -1.557,0.401 -2.215,-0.065 0,0 -1.713,-1.213 -1.713,-1.213 -0.369,0.334 -0.721,0.686 -1.055,1.055 l 1.213,1.713 c 0.466,0.658 0.492,1.531 0.065,2.215 -0.676,1.084 -1.169,2.273 -1.457,3.519 -0.182,0.785 -0.818,1.384 -1.612,1.52 0,0 -2.069,0.353 -2.069,0.353 -0.025,0.497 -0.025,0.995 0,1.492 l 2.069,0.353 c 0.794,0.136 1.43,0.735 1.612,1.52 0.288,1.246 0.781,2.435 1.457,3.519 0.427,0.684 0.401,1.557 -0.065,2.215 0,0 -1.213,1.713 -1.213,1.713 0.334,0.369 0.686,0.721 1.055,1.055 l 1.713,-1.213 c 0.658,-0.466 1.531,-0.492 2.215,-0.065 1.084,0.676 2.273,1.169 3.519,1.457 0.785,0.182 1.384,0.818 1.52,1.612 0,0 0.353,2.069 0.353,2.069 0.497,0.025 0.995,0.025 1.492,0 l 0.353,-2.069 c 0.136,-0.794 0.735,-1.43 1.52,-1.612 1.246,-0.288 2.435,-0.781 3.519,-1.457 0.684,-0.427 1.557,-0.401 2.215,0.065 0,0 1.713,1.213 1.713,1.213 0.369,-0.334 0.721,-0.686 1.055,-1.055 l -1.213,-1.713 c -0.466,-0.658 -0.492,-1.531 -0.065,-2.215 0.676,-1.084 1.169,-2.273 1.457,-3.519 0.182,-0.785 0.818,-1.384 1.612,-1.52 0,0 2.069,-0.353 2.069,-0.353 0.025,-0.497 0.025,-0.995 0,-1.492 l -2.069,-0.353 c -0.794,-0.136 -1.43,-0.735 -1.612,-1.52 -0.288,-1.246 -0.781,-2.435 -1.457,-3.519 -0.427,-0.684 -0.401,-1.557 0.065,-2.215 0,0 1.213,-1.713 1.213,-1.713 -0.334,-0.369 -0.686,-0.721 -1.055,-1.055 l -1.713,1.213 c -0.658,0.466 -1.531,0.492 -2.215,0.065 -1.084,-0.676 -2.273,-1.169 -3.519,-1.457 -0.785,-0.182 -1.384,-0.818 -1.52,-1.612 z M 92,83.2 c 4.857,0 8.8,3.943 8.8,8.8 0,4.857 -3.943,8.8 -8.8,8.8 -4.857,0 -8.8,-3.943 -8.8,-8.8 0,-4.857 3.943,-8.8 8.8,-8.8 z m 0,4 c -2.649,0 -4.8,2.151 -4.8,4.8 0,2.649 2.151,4.8 4.8,4.8 2.649,0 4.8,-2.151 4.8,-4.8 0,-2.649 -2.151,-4.8 -4.8,-4.8 z M 60.907,105.768 C 59.292,105.922 57.655,106 56,106 30.905,106 10.055,87.963 6.028,64.336 5.929,63.755 6.092,63.16 6.472,62.71 6.852,62.26 7.411,62 8,62 h 4 V 55.662 C 9.162,54.683 7,51.68 7,48 c 0,-4.507 3.244,-8 7,-8 1.272,0 2.474,0.384 3.514,1.074 C 18.551,40.389 19.747,40 21,40 c 3.756,0 7,3.493 7,8 0,3.68 -2.162,6.683 -5,7.662 V 62 H 43.184 L 60.306,40.285 C 61.446,38.839 63.175,38 65,38 c 1.825,0 3.554,0.839 4.694,2.285 l 1.229,1.559 4.383,-5.559 C 76.446,34.839 78.175,34 80,34 c 1.825,0 3.554,0.839 4.694,2.285 l 18.654,23.658 c -2.031,-0.72 -4.15,-1.252 -6.336,-1.575 L 81.553,38.761 C 81.175,38.282 80.605,38 80,38 c -0.605,0 -1.175,0.282 -1.553,0.761 L 60.124,62 h 15.872 c -2.108,1.128 -4.083,2.471 -5.896,4 H 45.891 c -0.047,1.108 0.164,2.053 0.625,2.83 0.773,1.3 2.197,2.073 3.925,2.462 2.059,0.462 4.53,0.364 7.103,-0.239 1.028,-0.241 2.067,0.359 2.371,1.371 0.499,1.658 1.026,3.17 1.584,4.546 -0.807,1.632 -1.486,3.338 -2.025,5.105 -1.029,-1.937 -1.98,-4.181 -2.843,-6.772 C 51.617,76.078 47.106,75.107 44.503,72.649 42.82,71.06 41.8,68.857 41.886,66 h -7.109 c 0.094,1.914 -0.363,3.491 -1.236,4.772 -1.691,2.482 -5.242,3.971 -10.443,4.226 -0.077,0.003 -0.153,0.003 -0.23,-0.002 -2.521,-0.167 -3.424,1.337 -4.545,2.541 -0.716,0.769 -1.476,1.483 -2.414,2.019 C 24.062,92.997 38.975,102 56,102 c 1.163,0 2.317,-0.042 3.459,-0.125 0.405,1.334 0.889,2.634 1.448,3.893 z M 14.856,44.171 C 14.587,44.061 14.3,44 14,44 c -1.767,0 -3,1.88 -3,4 0,2.12 1.233,4 3,4 0.3,0 0.587,-0.061 0.856,-0.171 C 14.312,50.7 14,49.399 14,48 c 0,-1.399 0.312,-2.7 0.856,-3.829 z M 21,44 c -1.767,0 -3,1.88 -3,4 0,2.12 1.233,4 3,4 1.767,0 3,-1.88 3,-4 0,-2.12 -1.233,-4 -3,-4 z m 9.775,22 c -11.826,0 -20.342,0 -20.342,0 0.793,3.521 1.997,6.891 3.558,10.058 0.897,-0.498 1.472,-1.329 2.142,-2.05 1.585,-1.706 3.357,-3.207 6.882,-3.011 1.91,-0.101 3.539,-0.365 4.849,-0.847 1.051,-0.386 1.871,-0.896 2.372,-1.631 0.462,-0.678 0.623,-1.515 0.539,-2.519 z M 48.278,62 H 55.03 L 68.376,45.074 66.553,42.761 C 66.175,42.282 65.605,42 65,42 c -0.605,0 -1.175,0.282 -1.553,0.761 z M 16,62 h 3 V 55.662 C 18.479,55.482 17.98,55.234 17.514,54.926 17.04,55.24 16.532,55.491 16,55.671 Z m 21.59,24.615 -6.53,4.081 c -0.617,0.385 -1.394,0.406 -2.03,0.053 C 28.395,90.397 28,89.727 28,89 V 79 c 0,-0.727 0.395,-1.397 1.03,-1.749 0.636,-0.353 1.413,-0.332 2.03,0.053 l 6.53,4.081 C 38.225,80.704 39.083,79.88 40.103,79.141 41.751,77.946 43.802,77 46,77 c 2.198,0 4.249,0.946 5.897,2.141 2.262,1.64 3.728,3.694 3.728,3.694 0.5,0.696 0.5,1.634 0,2.33 0,0 -1.466,2.054 -3.728,3.694 C 50.249,90.054 48.198,91 46,91 43.802,91 41.751,90.054 40.103,88.859 39.083,88.12 38.225,87.296 37.59,86.615 Z M 46,81 c -1.334,0 -2.549,0.654 -3.549,1.379 -0.735,0.533 -1.36,1.122 -1.834,1.621 0.474,0.499 1.099,1.088 1.834,1.621 1,0.725 2.215,1.379 3.549,1.379 1.334,0 2.549,-0.654 3.549,-1.379 C 50.284,85.088 50.909,84.499 51.383,84 50.909,83.501 50.284,82.912 49.549,82.379 48.549,81.654 47.334,81 46,81 Z M 34.226,84 32,82.608 v 2.784 z M 91,13 c 3.311,0 6,2.689 6,6 0,3.311 -2.689,6 -6,6 -3.311,0 -6,-2.689 -6,-6 0,-3.311 2.689,-6 6,-6 z m 0,4 c -1.104,0 -2,0.896 -2,2 0,1.104 0.896,2 2,2 1.104,0 2,-0.896 2,-2 0,-1.104 -0.896,-2 -2,-2 z M 35,56 c 1.104,0 2,0.896 2,2 0,1.104 -0.896,2 -2,2 -1.104,0 -2,-0.896 -2,-2 0,-1.104 0.896,-2 2,-2 z M 93,10 c 0,1.104 -0.896,2 -2,2 -1.104,0 -2,-0.896 -2,-2 V 8 c 0,-1.104 0.896,-2 2,-2 1.104,0 2,0.896 2,2 z m 5.778,4.05 c -0.78,0.781 -2.048,0.781 -2.828,0 -0.781,-0.78 -0.781,-2.048 0,-2.828 l 1.414,-1.414 c 0.78,-0.781 2.048,-0.781 2.828,0 0.781,0.78 0.781,2.048 0,2.828 z M 100,21 c -1.104,0 -2,-0.896 -2,-2 0,-1.104 0.896,-2 2,-2 h 2 c 1.104,0 2,0.896 2,2 0,1.104 -0.896,2 -2,2 z m -4.05,5.778 c -0.781,-0.78 -0.781,-2.048 0,-2.828 0.78,-0.781 2.048,-0.781 2.828,0 l 1.414,1.414 c 0.781,0.78 0.781,2.048 0,2.828 -0.78,0.781 -2.048,0.781 -2.828,0 z M 93,30 c 0,1.104 -0.896,2 -2,2 -1.104,0 -2,-0.896 -2,-2 v -2 c 0,-1.104 0.896,-2 2,-2 1.104,0 2,0.896 2,2 z m -8.364,-1.808 c -0.78,0.781 -2.048,0.781 -2.828,0 -0.781,-0.78 -0.781,-2.048 0,-2.828 l 1.414,-1.414 c 0.78,-0.781 2.048,-0.781 2.828,0 0.781,0.78 0.781,2.048 0,2.828 z M 80,21 c -1.104,0 -2,-0.896 -2,-2 0,-1.104 0.896,-2 2,-2 h 2 c 1.104,0 2,0.896 2,2 0,1.104 -0.896,2 -2,2 z m 1.808,-8.364 c -0.781,-0.78 -0.781,-2.048 0,-2.828 0.78,-0.781 2.048,-0.781 2.828,0 l 1.414,1.414 c 0.781,0.78 0.781,2.048 0,2.828 -0.78,0.781 -2.048,0.781 -2.828,0 z M 19.875,24 c -1.492,0 -2.894,-0.85 -3.623,-2.293 -0.11,-0.22 -0.18,-0.458 -0.204,-0.703 -0.247,-2.481 0.46,-4.726 1.984,-6.364 1.174,-1.263 2.86,-2.194 5.069,-2.517 C 24.074,8.482 27.889,6 32.961,6 c 3.298,0 6.208,1.07 8.021,2.559 0.925,0.759 1.585,1.635 1.965,2.558 1.673,0.252 2.957,0.891 3.95,1.704 1.928,1.578 2.756,3.89 3.008,5.697 0.22,1.587 -0.063,2.835 -0.24,3.186 -0.727,1.442 -2.129,2.292 -3.617,2.292 C 40.088,24 25.835,24 19.875,24 Z M 20,20 c 6.006,0 20.004,0 25.967,-0.004 C 45.86,19.089 45.166,15 41.328,15 c -1.104,0 -2,-0.895 -2,-2 0,-0.512 -0.39,-0.944 -0.884,-1.35 C 37.21,10.637 35.204,10 32.961,10 c -3.343,0 -6.103,1.374 -6.103,4 0,1.105 -0.895,2 -2,2 -1.742,0 -3.069,0.473 -3.896,1.363 C 20.316,18.057 20.01,18.981 20,20 Z m 26.054,-0.005 c 0.028,-0.008 0.023,-0.06 0.039,-0.092 -0.008,0.017 -0.023,0.052 -0.039,0.092 z m -24.843,7.899 c -0.494,-0.987 -0.093,-2.189 0.895,-2.683 0.987,-0.494 2.189,-0.093 2.683,0.895 l 1,2 c 0.494,0.987 0.093,2.189 -0.895,2.683 -0.987,0.494 -2.189,0.093 -2.683,-0.895 z m 7,0 c -0.494,-0.987 -0.093,-2.189 0.895,-2.683 0.987,-0.494 2.189,-0.093 2.683,0.895 l 1,2 c 0.494,0.987 0.093,2.189 -0.895,2.683 -0.987,0.494 -2.189,0.093 -2.683,-0.895 z m -2,7 c -0.494,-0.987 -0.093,-2.189 0.895,-2.683 0.987,-0.494 2.189,-0.093 2.683,0.895 l 1,2 c 0.494,0.987 0.093,2.189 -0.895,2.683 -0.987,0.494 -2.189,0.093 -2.683,-0.895 z m 9,-7 c -0.494,-0.987 -0.093,-2.189 0.895,-2.683 0.987,-0.494 2.189,-0.093 2.683,0.895 l 1,2 c 0.494,0.987 0.093,2.189 -0.895,2.683 -0.987,0.494 -2.189,0.093 -2.683,-0.895 z m -2,7 c -0.494,-0.987 -0.093,-2.189 0.895,-2.683 0.987,-0.494 2.189,-0.093 2.683,0.895 l 1,2 c 0.494,0.987 0.093,2.189 -0.895,2.683 -0.987,0.494 -2.189,0.093 -2.683,-0.895 z m 9,-7 c -0.494,-0.987 -0.093,-2.189 0.895,-2.683 0.987,-0.494 2.189,-0.093 2.683,0.895 l 1,2 c 0.494,0.987 0.093,2.189 -0.895,2.683 -0.987,0.494 -2.189,0.093 -2.683,-0.895 z m -2,7 c -0.494,-0.987 -0.093,-2.189 0.895,-2.683 0.987,-0.494 2.189,-0.093 2.683,0.895 l 1,2 c 0.494,0.987 0.093,2.189 -0.895,2.683 -0.987,0.494 -2.189,0.093 -2.683,-0.895 z m -0.344,18.822 c -0.395,1.031 -1.553,1.546 -2.584,1.151 -1.03,-0.395 -1.546,-1.553 -1.151,-2.584 0.751,-1.958 2.091,-3.39 4.175,-4.16 1.036,-0.382 2.187,0.149 2.569,1.184 0.382,1.036 -0.148,2.187 -1.184,2.569 -0.917,0.338 -1.495,0.979 -1.825,1.84 z"
         id="path9-1" /></g><circle
       cx="41.023605"
       cy="-23.108776"
       r="0.82103103"
       fill="#d98285"
       id="circle6"
       style="stroke-width:0.273677" /><path
       d="m 41.023604,-22.01407 a 1.0947081,1.0947081 0 1 0 -1.094709,-1.094707 1.0947081,1.0947081 0 0 0 1.094709,1.094707 z m 0,-1.64206 a 0.54735405,0.54735405 0 1 1 -0.547354,0.547353 0.54735405,0.54735405 0 0 1 0.547354,-0.547353 z"
       id="path9-7"
       style="stroke-width:0.273677" /><rect
       width="0.54735404"
       height="0.54735404"
       x="40.749924"
       y="-21.466719"
       id="rect9"
       style="stroke-width:0.273677" /><rect
       width="0.54735404"
       height="0.54735404"
       x="42.665665"
       y="-23.382454"
       id="rect10"
       style="stroke-width:0.273677" /><rect
       width="0.54735404"
       height="0.54735404"
       x="38.834187"
       y="-23.382454"
       id="rect11"
       style="stroke-width:0.273677" /><rect
       width="0.54735404"
       height="0.54735404"
       x="40.749924"
       y="-25.298193"
       id="rect12"
       style="stroke-width:0.273677" /><rect
       width="0.54735404"
       height="0.54735404"
       x="43.158928"
       y="12.394017"
       transform="rotate(-45)"
       id="rect13"
       style="stroke-width:0.273677" /><rect
       width="0.54735404"
       height="0.54735404"
       x="45.074764"
       y="14.309857"
       transform="rotate(-45)"
       id="rect14"
       style="stroke-width:0.273677" /><rect
       width="0.54735404"
       height="0.54735404"
       x="45.074764"
       y="10.478181"
       transform="rotate(-45)"
       id="rect15"
       style="stroke-width:0.273677" /><rect
       width="0.54735404"
       height="0.54735404"
       x="46.990601"
       y="12.394017"
       transform="rotate(-45)"
       id="rect16"
       style="stroke-width:0.273677" /><g
       id="g1"
       transform="matrix(0.52916667,0,0,0.52916667,48.154166,-16.245417)"><path
         fill="url(#vAaRN8Eal4YV3qoiQ9GEva)"
         d="M 30,38 H 18 c 0,0.855 0,2.4 0,2.4 0,3.314 2.686,6 6,6 3.314,0 6,-2.686 6,-6 0,0 0,-1.545 0,-2.4 z"
         id="path2-0" /><path
         fill="url(#vAaRN8Eal4YV3qoiQ9GEvb)"
         d="M 36,21 C 36,14.373 30.627,9 24,9 17.373,9 12,14.373 12,21 c 0,7 6,12 6,15.8 V 38 H 30 V 36.8 C 30,33 36,28 36,21 Z"
         id="path4-2" /><circle
         cx="43"
         cy="21"
         r="2"
         fill="url(#vAaRN8Eal4YV3qoiQ9GEvc)"
         id="circle6-4" /><circle
         cx="5"
         cy="21"
         r="2"
         fill="url(#vAaRN8Eal4YV3qoiQ9GEvd)"
         id="circle8" /><circle
         cx="24"
         cy="2"
         r="2"
         fill="url(#vAaRN8Eal4YV3qoiQ9GEve)"
         id="circle10" /><circle
         cx="37.435001"
         cy="34.435001"
         r="2"
         fill="url(#vAaRN8Eal4YV3qoiQ9GEvf)"
         id="circle12" /><circle
         cx="10.565"
         cy="7.5650001"
         r="2"
         fill="url(#vAaRN8Eal4YV3qoiQ9GEvg)"
         id="circle14" /><circle
         cx="10.565"
         cy="34.435001"
         r="2"
         fill="url(#vAaRN8Eal4YV3qoiQ9GEvh)"
         id="circle16" /><circle
         cx="37.435001"
         cy="7.5650001"
         r="2"
         fill="url(#vAaRN8Eal4YV3qoiQ9GEvi)"
         id="circle18" /></g><g
       id="g4"
       transform="matrix(1.1310578,0,0,1.1310578,-9.5615224,-114.9551)"
       style="fill:#fcfe15;fill-opacity:1;stroke:#000000;stroke-width:0.0356588;stroke-dasharray:none;stroke-opacity:1"><path
         fill="url(#vAaRN8Eal4YV3qoiQ9GEvb)"
         d="m 87.467066,108.67771 c 0,-2.6444 -2.144009,-4.78841 -4.788406,-4.78841 -2.644398,0 -4.788407,2.14401 -4.788407,4.78841 0,2.79323 2.394203,4.7884 2.394203,6.30473 v 0.47884 h 4.788407 v -0.47884 c 0,-1.51633 2.394203,-3.5115 2.394203,-6.30473 z"
         id="path4-90"
         style="fill:#cce7cc;fill-opacity:1;stroke:#000000;stroke-width:0;stroke-dasharray:none;stroke-opacity:1" /></g><g
       id="g2"
       transform="matrix(0.17534076,0,0,0.17534076,82.435199,-31.485023)"
       style="stroke-width:1.72349;stroke-dasharray:none"><path
         fill="#8cc78c"
         d="M 67.962,25.626 C 59.365,21.875 50.995,8 50,8 49.005,8 41.902,21.153 32.032,25.629 c -0.691,0.314 -1.074,0.952 -1.028,1.6 0.044,0.644 3.311,3.579 9.046,2.84 1.817,3.732 7.742,4.296 9.951,2.287 3.588,2.357 9.904,0.621 9.904,-2.504 5.104,1.562 9.049,-1.982 9.093,-2.627 0.044,-0.648 -0.34,-1.296 -1.036,-1.599 z"
         id="path1"
         style="stroke-width:1.72349;stroke-dasharray:none" /><path
         fill="#8cc78c"
         d="m 40.79,31.5 c -5.283,5.908 -12.353,11.019 -17.27,13.316 -1.001,0.469 -1.579,1.328 -1.515,2.23 0.045,0.597 3.438,6.654 12.672,5.466 4.275,4.207 11.46,4.395 15.323,1.703 5.335,2.694 11.082,2.033 14.629,-1.545 10.346,1.123 13.323,-5.015 13.367,-5.627 C 78.06,46.14 77.475,45.284 76.469,44.811 71.612,42.562 64.48,37.604 59.206,31.762"
         id="path2"
         style="stroke-width:1.72349;stroke-dasharray:none" /><path
         fill="#8cc78c"
         d="m 33.99,53 c -6.276,6.005 -12.855,10.877 -18.036,13.301 -1.286,0.61 -2.029,1.715 -1.948,2.88 0.056,0.737 3.641,7.83 14.691,6.164 5.994,4.259 14.12,5.148 21.298,3.084 8.388,2.238 14.374,0.811 19.049,-2.82 9.673,0.779 16.647,-4.014 16.941,-6.426 0.141,-1.164 -0.67,-2.276 -1.964,-2.886 C 78.743,63.841 72.217,59.548 65.869,53.395"
         id="path3"
         style="stroke-width:1.72349;stroke-dasharray:none" /><path
         fill="none"
         stroke="#1f212b"
         stroke-linecap="round"
         stroke-linejoin="round"
         stroke-miterlimit="10"
         stroke-width="2"
         d="M 67.962,25.626 C 59.365,21.875 50.995,8 50,8 49.005,8 41.902,21.153 32.032,25.629 c -0.691,0.314 -1.074,0.952 -1.028,1.6 0.044,0.644 3.311,3.579 9.046,2.84 1.817,3.732 7.742,4.296 9.951,2.287 3.588,2.357 9.904,0.621 9.904,-2.504 5.104,1.562 9.049,-1.982 9.093,-2.627 0.044,-0.648 -0.34,-1.296 -1.036,-1.599 z"
         id="path4"
         style="fill:#98bb98;fill-opacity:1;stroke-width:1.72349;stroke-dasharray:none" /><polyline
         fill="#b77748"
         points="57,78.5 57,91.5 43,91.5 43,78.5"
         id="polyline6"
         style="fill:#6b4f3a;fill-opacity:1;stroke-width:1.72349;stroke-dasharray:none" /><path
         fill="none"
         stroke="#1f212b"
         stroke-linecap="round"
         stroke-linejoin="round"
         stroke-miterlimit="10"
         stroke-width="2"
         d="m 40.79,31.5 c -5.283,5.908 -12.353,11.019 -17.27,13.316 -1.001,0.469 -1.579,1.328 -1.515,2.23 0.045,0.597 3.438,6.654 12.672,5.466 4.275,4.207 11.46,4.395 15.323,1.703 5.335,2.694 11.082,2.033 14.629,-1.545 10.346,1.123 13.323,-5.015 13.367,-5.627 C 78.06,46.14 77.475,45.284 76.469,44.811 71.612,42.562 64.48,37.604 59.206,31.762"
         id="path7"
         style="fill:#98bb98;fill-opacity:1;stroke-width:1.72349;stroke-dasharray:none"
         sodipodi:nodetypes="ccccccccc" /><path
         fill="none"
         stroke="#1f212b"
         stroke-linecap="round"
         stroke-linejoin="round"
         stroke-miterlimit="10"
         stroke-width="2"
         d="m 33.99,53 c -6.276,6.005 -12.855,10.877 -18.036,13.301 -1.286,0.61 -2.029,1.715 -1.948,2.88 0.056,0.737 3.641,7.83 14.691,6.164 5.994,4.259 14.12,5.148 21.298,3.084 8.388,2.238 14.374,0.811 19.049,-2.82 9.673,0.779 16.647,-4.014 16.941,-6.426 0.141,-1.164 -0.67,-2.276 -1.964,-2.886 C 78.743,63.841 72.217,59.548 65.869,53.395"
         id="path8"
         style="fill:#98bb98;fill-opacity:1;stroke-width:1.72349;stroke-dasharray:none" /><polyline
         fill="none"
         stroke="#1f212b"
         stroke-linecap="round"
         stroke-linejoin="round"
         stroke-miterlimit="10"
         stroke-width="2"
         points="57,80 57,91.5 43,91.5 43,80"
         id="polyline11"
         style="fill:#6b4f3a;fill-opacity:1;stroke-width:1.72349;stroke-dasharray:none"
         transform="translate(0.15479965,0.61919812)" /></g><g
       id="g3"
       transform="matrix(0.10041481,0.05649724,-0.05649724,0.10041481,64.948418,-17.492542)"
       style="stroke-width:3.0797;stroke-dasharray:none"><path
         fill="#37474f"
         d="m -62.383213,41.797017 h 38.8164 v 16.820439 h -38.8164 z"
         id="path1-3"
         style="fill:#263136;fill-opacity:1;stroke-width:3.0797;stroke-dasharray:none" /><path
         fill="#37474f"
         d="m -42.975013,50.854177 a 19.4082,7.76328 0 1 0 0,15.526559 19.4082,7.76328 0 1 0 0,-15.526559 z"
         id="path2-2"
         style="fill:#232d33;fill-opacity:1;stroke:none;stroke-width:3.0797;stroke-dasharray:none;stroke-opacity:1" /><path
         fill="#78909c"
         d="m -44.139505,26.529233 -29.1123,12.809411 c -1.035103,0.517553 -1.035103,1.94082 0,2.458373 l 29.1123,12.809411 c 0.776328,0.258777 1.552656,0.258777 2.328984,0 l 29.1123,-12.809411 c 1.035104,-0.517553 1.035104,-1.94082 0,-2.458373 l -29.1123,-12.809411 c -0.776328,-0.388164 -1.552656,-0.388164 -2.328984,0 z"
         id="path3-6"
         style="fill:#565e62;fill-opacity:1;stroke:#1f212b;stroke-width:3.0797;stroke-dasharray:none;stroke-opacity:1"
         sodipodi:nodetypes="ccccccccc" /><path
         fill="#37474f"
         d="m -18.132517,42.314569 -25.8776,-4.399192 c -0.646939,-0.129388 -1.423268,0.388164 -1.552656,1.035103 -0.129388,0.64694 0.388164,1.423269 1.035104,1.552657 l 24.842496,4.140416 8.253545,14.50566 c 0.383926,0.674751 0.517553,1.293879 1.29388,1.293879 0.7763278,0 1.6580138,-0.608246 1.2938808,-1.293879 L -17.097413,43.608448 c -0.303445,-0.57136 -0.517552,-1.164491 -1.035104,-1.293879 z"
         id="path4-9"
         sodipodi:nodetypes="ccsccssssc"
         style="fill:#1f212b;fill-opacity:1;stroke:#1f212b;stroke-width:1.0928;stroke-dasharray:none;stroke-opacity:1" /><path
         fill="#37474f"
         d="m -10.785881,57.53948 a 2.5877601,2.5877601 0 1 0 2.4208918,4.574416 2.5877601,2.5877601 0 1 0 -2.4208918,-4.574416 z"
         id="path5-4"
         style="fill:#1f212b;fill-opacity:1;stroke-width:3.0797;stroke-dasharray:none" /><path
         fill="#37474f"
         d="m -4.3289515,61.441831 c 1.0288775,1.944127 0.2005265,8.677294 0.2005265,8.677294 0,0 -6.033272,-3.101828 -7.062152,-5.045954 -1.028879,-1.944128 -0.328991,-4.217602 1.6151418,-5.246483 1.944129,-1.028879 4.2176035,-0.328989 5.2464837,1.615143 z"
         id="path6-1"
         style="fill:#1f212b;fill-opacity:1;stroke-width:3.0797;stroke-dasharray:none" /><path
         style="opacity:0.99568;fill:none;fill-opacity:1;stroke:#1f212b;stroke-width:3.0797;stroke-linecap:round;stroke-linejoin:round;stroke-dasharray:none;stroke-opacity:1"
         d="m -62.185715,47.364059 c -0.07677,3.991768 -0.153549,7.983535 -0.230323,11.975303 0.958015,2.038789 2.713965,3.557561 4.783197,4.408785 5.486651,2.617229 11.724612,2.541469 17.667637,2.590243 3.269461,-0.131662 6.521575,-0.783377 9.640088,-1.753719 2.450339,-1.032576 4.994643,-2.417475 6.44281,-4.723816 0.696793,-1.27663 0.282917,-2.76972 0.393947,-4.159107 l -8.6e-4,-7.986239"
         id="path30"
         sodipodi:nodetypes="cccccccc" /></g><g
       id="g37"
       transform="matrix(0.04583655,0.0257894,-0.0257894,0.04583655,43.940898,-12.66274)"
       style="stroke-width:3.0797;stroke-dasharray:none"><path
         fill="#37474f"
         d="m -62.383213,41.797017 h 38.8164 v 16.820439 h -38.8164 z"
         id="path31"
         style="fill:#263136;fill-opacity:1;stroke-width:3.0797;stroke-dasharray:none" /><path
         fill="#37474f"
         d="m -42.975013,50.854177 a 19.4082,7.76328 0 1 0 0,15.526559 19.4082,7.76328 0 1 0 0,-15.526559 z"
         id="path32"
         style="fill:#232d33;fill-opacity:1;stroke:none;stroke-width:3.0797;stroke-dasharray:none;stroke-opacity:1" /><path
         fill="#78909c"
         d="m -44.139505,26.529233 -29.1123,12.809411 c -1.035103,0.517553 -1.035103,1.94082 0,2.458373 l 29.1123,12.809411 c 0.776328,0.258777 1.552656,0.258777 2.328984,0 l 29.1123,-12.809411 c 1.035104,-0.517553 1.035104,-1.94082 0,-2.458373 l -29.1123,-12.809411 c -0.776328,-0.388164 -1.552656,-0.388164 -2.328984,0 z"
         id="path33"
         style="fill:#34393c;fill-opacity:1;stroke:#000000;stroke-width:6.80013;stroke-dasharray:none;stroke-opacity:1"
         sodipodi:nodetypes="ccccccccc" /><path
         fill="#37474f"
         d="m -18.132517,42.314569 -25.8776,-4.399192 c -0.646939,-0.129388 -1.423268,0.388164 -1.552656,1.035103 -0.129388,0.64694 0.388164,1.423269 1.035104,1.552657 l 24.842496,4.140416 8.253545,14.50566 c 0.383926,0.674751 0.517553,1.293879 1.29388,1.293879 0.7763278,0 1.6580138,-0.608246 1.2938808,-1.293879 L -17.097413,43.608448 c -0.303445,-0.57136 -0.517552,-1.164491 -1.035104,-1.293879 z"
         id="path34"
         sodipodi:nodetypes="ccsccssssc"
         style="fill:#1f212b;fill-opacity:1;stroke:#000000;stroke-width:4.81987;stroke-dasharray:none;stroke-opacity:1" /><path
         fill="#37474f"
         d="m -10.785881,57.53948 a 2.5877601,2.5877601 0 1 0 2.4208918,4.574416 2.5877601,2.5877601 0 1 0 -2.4208918,-4.574416 z"
         id="path35"
         style="fill:#1f212b;fill-opacity:1;stroke-width:3.0797;stroke-dasharray:none" /><path
         fill="#37474f"
         d="m -2.1053205,58.570145 c 1.80477985,3.117811 0.8678039,14.188947 0.8678039,14.188947 0,0 -10.0670574,-4.701314 -11.8718414,-7.819123 -1.804782,-3.117811 -0.800715,-6.882145 2.317105,-8.686931 3.1178138,-1.804782 6.8821478,-0.800711 8.6869325,2.317107 z"
         id="path36"
         style="fill:#000000;fill-opacity:1;stroke-width:5.04393;stroke-dasharray:none" /><path
         style="opacity:0.99568;fill:none;fill-opacity:1;stroke:#000000;stroke-width:6.80013;stroke-linecap:round;stroke-linejoin:round;stroke-dasharray:none;stroke-opacity:1"
         d="m -62.185715,47.364059 c -0.07677,3.991768 -0.153549,7.983535 -0.230323,11.975303 0.958015,2.038789 2.713965,3.557561 4.783197,4.408785 5.486651,2.617229 11.724612,2.541469 17.667637,2.590243 3.269461,-0.131662 6.521575,-0.783377 9.640088,-1.753719 2.450339,-1.032576 4.994643,-2.417475 6.44281,-4.723816 0.696793,-1.27663 0.282917,-2.76972 0.393947,-4.159107 l -8.6e-4,-7.986239"
         id="path37"
         sodipodi:nodetypes="cccccccc" /></g><path
       style="opacity:1;fill:#98bb98;fill-opacity:1;stroke:none;stroke-width:0.274455;stroke-linecap:round;stroke-linejoin:round;stroke-dasharray:none;stroke-opacity:1"
       d="m 89.53339,-27.1949 0.01802,0.718841 c 0,0 0.151794,0.265545 0.162672,0.413153 0.01178,0.159803 -0.08825,0.386728 -0.08825,0.386728 l -1.452946,2.941693 c 0,0 0.361734,0.14801 0.36428,0.415755 0.0028,0.288064 -0.216697,0.83365 -0.216697,0.83365 l 1.68859,1.086721 3.467778,-0.480681 0.756091,-0.577476 c 0,0 -0.26804,-0.380627 -0.272575,-0.656067 -0.0041,-0.24707 0.267632,-0.380869 0.267632,-0.380869 l -1.316992,-2.935778 c 0,0 -0.121492,-0.197506 -0.152573,-0.641199 -0.02154,-0.307435 0.183783,-0.44754 0.183783,-0.44754 z"
       id="path66"
       sodipodi:nodetypes="ccsccsccccsccscc" /><g
       id="g67"
       transform="translate(4.7290611,-32.871425)"><path
         fill="#ffffff"
         d="m 84.266689,11.698074 v 0.610776 c 0,0.08982 -0.07186,0.17964 -0.17964,0.17964 h -9.161642 c -0.08982,0 -0.17964,-0.07186 -0.17964,-0.17964 v -0.610776 c 0,-0.08982 0.07186,-0.17964 0.17964,-0.17964 h 9.161642 c 0.107784,0.01796 0.17964,0.08982 0.17964,0.17964 z"
         id="path1-2"
         style="opacity:0.758099;stroke:#000000;stroke-width:0.114463;stroke-dasharray:none;stroke-opacity:1" /><rect
         width="8.5329018"
         height="5.0119567"
         x="75.248756"
         y="12.48849"
         fill="#ffffff"
         id="rect1"
         style="opacity:0.758099;stroke:#000000;stroke-width:0.114463;stroke-dasharray:none;stroke-opacity:1" /><path
         fill="#ffffff"
         d="m 84.643933,17.913619 v 0.574848 H 74.386487 v -0.574848 c 0,-0.233532 0.17964,-0.431136 0.431136,-0.431136 h 9.395174 c 0.233532,0.01796 0.431136,0.197604 0.431136,0.431136 z"
         id="path2-5"
         style="opacity:0.758099;stroke:#000000;stroke-width:0.114463;stroke-dasharray:none;stroke-opacity:1" /><path
         fill="#ffffff"
         d="m 77.781684,14.213035 v 3.287412 h -1.688617 v -3.287412 c 0,-0.467065 0.377244,-0.844309 0.844309,-0.844309 v 0 c 0.467064,0 0.844308,0.377244 0.844308,0.844309 z"
         id="path3-1"
         style="opacity:0.758099;stroke:#000000;stroke-width:0.114463;stroke-dasharray:none;stroke-opacity:1" /><path
         fill="#ffffff"
         d="m 80.350536,14.213035 v 3.287412 H 78.66192 v -3.287412 c 0,-0.467065 0.377244,-0.844309 0.844308,-0.844309 0.233532,0 0.4491,0.08982 0.592812,0.251496 0.161676,0.143712 0.251496,0.35928 0.251496,0.592813 z"
         id="path4-39"
         style="opacity:0.758099;stroke:#000000;stroke-width:0.114463;stroke-dasharray:none;stroke-opacity:1" /><path
         fill="#ffffff"
         d="m 82.919389,14.213035 v 3.287412 h -1.688617 v -3.287412 c 0,-0.467065 0.377244,-0.844309 0.844308,-0.844309 v 0 c 0.467064,0 0.844309,0.377244 0.844309,0.844309 z"
         id="path5-73"
         style="opacity:0.758099;stroke:#000000;stroke-width:0.114463;stroke-dasharray:none;stroke-opacity:1" /><path
         fill="#ffffff"
         d="M 84.536149,11.536398 H 74.494271 c -0.161676,0 -0.233532,-0.215568 -0.107784,-0.305388 l 5.029921,-3.8442966 c 0.05389,-0.053892 0.143712,-0.053892 0.215568,0 l 5.011957,3.8442966 c 0.125748,0.08982 0.05389,0.305388 -0.107784,0.305388 z"
         id="path6-7"
         style="opacity:0.758099;stroke:#000000;stroke-width:0.114463;stroke-dasharray:none;stroke-opacity:1" /><path
         fill="#ffffff"
         d="m 84.266689,11.698074 v 0.610776 c 0,0.08982 -0.07186,0.17964 -0.17964,0.17964 h -9.161642 c -0.08982,0 -0.17964,-0.07186 -0.17964,-0.17964 v -0.610776 c 0,-0.08982 0.07186,-0.17964 0.17964,-0.17964 h 9.161642 c 0.107784,0.01796 0.17964,0.08982 0.17964,0.17964 z"
         id="path8-2"
         style="opacity:0.99729;fill:#c1c1c0;fill-opacity:1;stroke:#000000;stroke-width:0.114463;stroke-dasharray:none;stroke-opacity:1" /><rect
         width="8.5329018"
         height="5.0119567"
         x="75.248756"
         y="12.48849"
         fill="#ffffff"
         id="rect8"
         style="opacity:0.758099;stroke:#000000;stroke-width:0.114463;stroke-dasharray:none;stroke-opacity:1" /><path
         fill="#ffffff"
         d="m 84.643933,17.913619 v 0.574848 H 74.386487 v -0.574848 c 0,-0.233532 0.17964,-0.431136 0.431136,-0.431136 h 9.395174 c 0.233532,0.01796 0.431136,0.197604 0.431136,0.431136 z"
         id="path9-18"
         style="opacity:0.758099;stroke:#000000;stroke-width:0.114463;stroke-dasharray:none;stroke-opacity:1" /><path
         fill="#ffffff"
         d="m 77.781684,14.213035 v 3.287412 h -1.688617 v -3.287412 c 0,-0.467065 0.377244,-0.844309 0.844309,-0.844309 v 0 c 0.467064,0 0.844308,0.377244 0.844308,0.844309 z"
         id="path10-7"
         style="opacity:0.758099;stroke:#000000;stroke-width:0.114463;stroke-dasharray:none;stroke-opacity:1" /><path
         fill="#ffffff"
         d="m 80.350536,14.213035 v 3.287412 H 78.66192 v -3.287412 c 0,-0.467065 0.377244,-0.844309 0.844308,-0.844309 0.233532,0 0.4491,0.08982 0.592812,0.251496 0.161676,0.143712 0.251496,0.35928 0.251496,0.592813 z"
         id="path11-1"
         style="opacity:0.758099;stroke:#000000;stroke-width:0.114463;stroke-dasharray:none;stroke-opacity:1" /><path
         fill="#ffffff"
         d="m 82.919389,14.213035 v 3.287412 h -1.688617 v -3.287412 c 0,-0.467065 0.377244,-0.844309 0.844308,-0.844309 v 0 c 0.467064,0 0.844309,0.377244 0.844309,0.844309 z"
         id="path12-5"
         style="opacity:0.758099;stroke:#000000;stroke-width:0.114463;stroke-dasharray:none;stroke-opacity:1" /><rect
         width="8.5329018"
         height="5.0119567"
         x="75.248756"
         y="12.48849"
         fill="#ffd550"
         id="rect15-8"
         style="opacity:0.758099;fill:#ababaa;fill-opacity:1;stroke:#000000;stroke-width:0.114463;stroke-dasharray:none;stroke-opacity:1" /><path
         fill="#efefef"
         d="m 84.643933,17.913619 v 0.574848 H 74.386487 v -0.574848 c 0,-0.233532 0.17964,-0.431136 0.431136,-0.431136 h 9.395174 c 0.233532,0.01796 0.431136,0.197604 0.431136,0.431136 z"
         id="path16-5"
         style="opacity:0.758099;fill:#9b9b9a;fill-opacity:1;stroke:#000000;stroke-width:0.114463;stroke-dasharray:none;stroke-opacity:1" /><path
         fill="#ffffff"
         d="m 77.781684,14.213035 v 3.287412 h -1.688617 v -3.287412 c 0,-0.467065 0.377244,-0.844309 0.844309,-0.844309 v 0 c 0.467064,0 0.844308,0.377244 0.844308,0.844309 z"
         id="path17-6"
         style="opacity:0.758099;fill:#838381;fill-opacity:1;stroke:#000000;stroke-width:0.114463;stroke-dasharray:none;stroke-opacity:1" /><path
         fill="#ffffff"
         d="m 80.350536,14.213035 v 3.287412 H 78.66192 v -3.287412 c 0,-0.467065 0.377244,-0.844309 0.844308,-0.844309 0.233532,0 0.4491,0.08982 0.592812,0.251496 0.161676,0.143712 0.251496,0.35928 0.251496,0.592813 z"
         id="path18-7"
         style="opacity:0.758099;fill:#91918f;fill-opacity:1;stroke:#000000;stroke-width:0.114463;stroke-dasharray:none;stroke-opacity:1" /><path
         fill="#ffffff"
         d="m 82.919389,14.213035 v 3.287412 h -1.688617 v -3.287412 c 0,-0.467065 0.377244,-0.844309 0.844308,-0.844309 v 0 c 0.467064,0 0.844309,0.377244 0.844309,0.844309 z"
         id="path19-9"
         style="opacity:0.758099;fill:#91918f;fill-opacity:1;stroke:#000000;stroke-width:0.114463;stroke-dasharray:none;stroke-opacity:1" /><path
         fill="#f95353"
         d="M 84.570801,11.640356 H 74.528923 c -0.161676,0 -0.233532,-0.215568 -0.107784,-0.305388 L 79.45106,7.4906716 c 0.05389,-0.053892 0.143712,-0.053892 0.215568,0 l 5.011957,3.8442964 c 0.125748,0.08982 0.05389,0.305388 -0.107784,0.305388 z"
         id="path20-4"
         style="opacity:0.996479;fill:#cdcdcd;fill-opacity:1;stroke:#000000;stroke-width:0.114463;stroke-dasharray:none;stroke-opacity:1" /><path
         d="m 84.194832,12.66813 c 0.197604,0 0.35928,-0.161676 0.35928,-0.35928 v -0.610776 h 0.08982 c 0.143712,0 0.287424,-0.08982 0.323352,-0.233532 0.05389,-0.143712 0,-0.305388 -0.125748,-0.395208 L 79.829579,7.2430014 c -0.125748,-0.08982 -0.305388,-0.08982 -0.431136,0 l -5.011956,3.8442966 c -0.125748,0.08982 -0.161676,0.251496 -0.125748,0.395208 0.05389,0.143712 0.17964,0.233532 0.323352,0.233532 h 0.08982 v 0.610776 c 0,0.197604 0.161676,0.35928 0.35928,0.35928 h 0.143712 v 4.652676 h -0.26946 c -0.341316,0 -0.610776,0.26946 -0.610776,0.610777 v 0.53892 c 0,0.107784 0.07186,0.17964 0.17964,0.17964 h 10.257445 c 0.107784,0 0.17964,-0.07186 0.17964,-0.17964 v -0.574848 c 0,-0.341316 -0.26946,-0.610777 -0.610776,-0.610777 h -0.26946 V 12.66813 Z m -4.580821,-5.1377046 5.029921,3.8263326 c 0.03593,0 -0.682632,0 -10.023913,0.01796 z m -4.58082,4.1856126 h 9.161641 v 0.592812 h -9.161641 z m 2.676636,5.604769 h -1.329336 v -3.107773 c 0,-0.35928 0.305388,-0.664668 0.664668,-0.664668 0.35928,0 0.664668,0.305388 0.664668,0.664668 z m 2.568852,0 h -1.329336 v -3.107773 c 0,-0.35928 0.305388,-0.664668 0.664668,-0.664668 0.35928,0 0.664668,0.305388 0.664668,0.664668 z m 2.568853,0 h -1.329336 v -3.107773 c 0,-0.35928 0.305388,-0.664668 0.664668,-0.664668 0.35928,0 0.664668,0.305388 0.664668,0.664668 z m 1.70658,0.592812 v 0.395208 h -9.880201 v -0.395208 c 0,-0.143712 0.107784,-0.251496 0.251496,-0.251496 h 9.395173 c 0.125748,0.01796 0.233532,0.125748 0.233532,0.251496 z M 83.69184,17.320807 h -0.485028 v -3.107773 c 0,-0.556884 -0.4491,-1.023948 -1.023948,-1.023948 -0.574848,0 -1.023948,0.4491 -1.023948,1.023948 v 3.107773 h -0.538921 v -3.107773 c 0,-0.556884 -0.4491,-1.023948 -1.023948,-1.023948 -0.556884,0 -1.023948,0.4491 -1.023948,1.023948 v 3.107773 h -0.520956 v -3.107773 c 0,-0.556884 -0.4491,-1.023948 -1.023948,-1.023948 -0.574848,0 -1.005984,0.467064 -1.005984,1.023948 v 0.859938 2.247835 H 75.536183 V 12.66813 h 8.173621 v 4.652677 z"
         id="path22"
         style="opacity:1;stroke:#000000;stroke-width:0;stroke-dasharray:none;stroke-opacity:1"
         sodipodi:nodetypes="sscsccccccscssccssssssssccscccccccccccssscccssscccssscsccsscsccsssccsssccsssccccccc" /></g><path
       d="m 84.270001,15.327865 v -1.734067 c 1.48649,-0.270578 3.54108,-3.392384 -0.0701,-7.5508694 -0.11423,-0.1222956 -0.30627,-0.1222956 -0.42049,0 -0.0827,0.095239 -2.03239,2.3543521 -2.03239,4.1680144 0,1.767898 0.84098,3.17903 1.96231,3.382855 v 1.734067 c 0.48741,0.05538 -0.0117,0.09836 0.56066,0 z m -1.96231,-5.116922 c 0,-1.2732585 1.18888,-2.9106708 1.68198,-3.5346523 0.4931,0.6239815 1.68198,2.2613938 1.68198,3.5346523 0,1.379582 -0.61672,2.564718 -1.40165,2.798106 v -2.229558 h -0.56066 v 2.229558 c -0.78492,-0.233388 -1.40165,-1.418524 -1.40165,-2.798106 z"
       id="path8-6"
       style="fill:#fbfdfb;fill-opacity:1;stroke:none;stroke-width:0.141047;stroke-dasharray:none;stroke-opacity:1"
       sodipodi:nodetypes="ccccscccscsccccs" /><g
       id="g23"
       transform="matrix(0.49199043,0,0,0.61013358,42.939307,-12.751286)"><path
         fill="#7cb2f8"
         d="m 88.820832,46.213338 h -10.94708 a 5.4735405,5.4735405 0 0 0 10.94708,0 z"
         id="path1-8"
         style="stroke-width:0.273677" /><path
         fill="#4b9d93"
         d="m 81.437026,48.397281 -0.265466,0.265467 a 0.29091868,0.29091868 0 0 1 -0.03011,0.02463 l -0.944186,0.711561 a 0.27121392,0.27121392 0 0 0 -0.106734,0.26273 l 0.180627,1.075551 a 5.4584881,5.4584881 0 0 1 -2.39741,-4.523882 h 3.420962 l -0.561038,1.124813 a 0.27367703,0.27367703 0 0 0 0.120418,0.366727 l 0.511776,0.25452 a 0.27367703,0.27367703 0 0 1 0.07116,0.437883 z"
         id="path2-8"
         style="stroke-width:0.273677" /><path
         fill="#4b9d93"
         d="m 88.404843,48.304231 a 5.4735405,5.4735405 0 0 1 -5.057551,3.382648 5.3019449,5.3019449 0 0 1 -1.149443,-0.123155 l 1.070077,-1.926686 a 0.28161366,0.28161366 0 0 1 0.240836,-0.139575 h 1.247967 a 0.27367703,0.27367703 0 0 0 0.27094,-0.229889 l 0.191574,-1.149444 a 0.27367703,0.27367703 0 0 1 0.309255,-0.224415 z"
         id="path3-3"
         style="stroke-width:0.273677" /></g><g
       id="g24"
       transform="matrix(0.16552711,0,0,0.16552711,103.50068,14.055425)"
       style="stroke:#fcfcfc;stroke-opacity:1"><path
         id="line1"
         style="fill:none;stroke:#fcfcfc;stroke-width:3;stroke-linecap:round;stroke-miterlimit:10;stroke-opacity:1"
         d="M 24,12.5 V 54.095373"
         sodipodi:nodetypes="cc" /><line
         x1="15.5"
         x2="24"
         y1="19.5"
         y2="28"
         fill="none"
         stroke="#000000"
         stroke-linecap="round"
         stroke-miterlimit="10"
         stroke-width="3"
         id="line2"
         style="stroke:#fcfcfc;stroke-opacity:1" /><line
         x1="32.5"
         x2="24"
         y1="23.5"
         y2="32"
         fill="none"
         stroke="#000000"
         stroke-linecap="round"
         stroke-miterlimit="10"
         stroke-width="3"
         id="line3"
         style="stroke:#fcfcfc;stroke-opacity:1" /><path
         fill="none"
         stroke="#000000"
         stroke-linecap="round"
         stroke-linejoin="round"
         stroke-miterlimit="10"
         stroke-width="3"
         d="M 15.5,8.3 C 14.1,9.9 13.1,11.8 12.7,14 8,15.4 4.5,19.8 4.5,25 c 0,6.4 5.1,11.5 11.5,11.5 1.1,0 5.9,0 8,0"
         id="path3-0"
         style="stroke:#fcfcfc;stroke-opacity:1" /><path
         fill="none"
         stroke="#000000"
         stroke-linecap="round"
         stroke-linejoin="round"
         stroke-miterlimit="10"
         stroke-width="3"
         d="m 29,36.5 c 4.1,0 1.3,0 3,0 6.4,0 11.5,-5.1 11.5,-11.5 0,-5.2 -3.5,-9.6 -8.2,-11 -1,-5.4 -5.6,-9.5 -11.3,-9.5 -0.7,0 -1.4,0.1 -2.1,0.2"
         id="path4-32"
         style="stroke:#fcfcfc;stroke-opacity:1" /></g></g></svg>
